<svg id="visual" viewBox="0 0 960 540" width="960" height="540" xmlns="http://www.w3.org/2000/svg" xmlns:xlink="http://www.w3.org/1999/xlink" version="1.1"><rect x="0" y="0" width="960" height="540" fill="#210000"></rect><path d="M0 61L137 61L137 61L274 61L274 85L411 85L411 60L549 60L549 99L686 99L686 121L823 121L823 152L960 152L960 164L960 541L960 541L823 541L823 541L686 541L686 541L549 541L549 541L411 541L411 541L274 541L274 541L137 541L137 541L0 541Z" fill="#540000"></path><path d="M0 160L137 160L137 144L274 144L274 163L411 163L411 139L549 139L549 161L686 161L686 176L823 176L823 97L960 97L960 188L960 541L960 541L823 541L823 541L686 541L686 541L549 541L549 541L411 541L411 541L274 541L274 541L137 541L137 541L0 541Z" fill="#4f0101"></path><path d="M0 165L137 165L137 200L274 200L274 196L411 196L411 185L549 185L549 214L686 214L686 220L823 220L823 148L960 148L960 202L960 541L960 541L823 541L823 541L686 541L686 541L549 541L549 541L411 541L411 541L274 541L274 541L137 541L137 541L0 541Z" fill="#4b0202"></path><path d="M0 177L137 177L137 225L274 225L274 237L411 237L411 236L549 236L549 229L686 229L686 198L823 198L823 194L960 194L960 216L960 541L960 541L823 541L823 541L686 541L686 541L549 541L549 541L411 541L411 541L274 541L274 541L137 541L137 541L0 541Z" fill="#460202"></path><path d="M0 267L137 267L137 216L274 216L274 266L411 266L411 250L549 250L549 274L686 274L686 225L823 225L823 278L960 278L960 235L960 541L960 541L823 541L823 541L686 541L686 541L549 541L549 541L411 541L411 541L274 541L274 541L137 541L137 541L0 541Z" fill="#420303"></path><path d="M0 292L137 292L137 300L274 300L274 274L411 274L411 308L549 308L549 282L686 282L686 260L823 260L823 277L960 277L960 269L960 541L960 541L823 541L823 541L686 541L686 541L549 541L549 541L411 541L411 541L274 541L274 541L137 541L137 541L0 541Z" fill="#3d0403"></path><path d="M0 341L137 341L137 317L274 317L274 301L411 301L411 295L549 295L549 334L686 334L686 312L823 312L823 347L960 347L960 295L960 541L960 541L823 541L823 541L686 541L686 541L549 541L549 541L411 541L411 541L274 541L274 541L137 541L137 541L0 541Z" fill="#390403"></path><path d="M0 352L137 352L137 384L274 384L274 374L411 374L411 360L549 360L549 339L686 339L686 352L823 352L823 351L960 351L960 331L960 541L960 541L823 541L823 541L686 541L686 541L549 541L549 541L411 541L411 541L274 541L274 541L137 541L137 541L0 541Z" fill="#340503"></path><path d="M0 402L137 402L137 363L274 363L274 374L411 374L411 392L549 392L549 375L686 375L686 366L823 366L823 397L960 397L960 377L960 541L960 541L823 541L823 541L686 541L686 541L549 541L549 541L411 541L411 541L274 541L274 541L137 541L137 541L0 541Z" fill="#300402"></path><path d="M0 443L137 443L137 435L274 435L274 402L411 402L411 438L549 438L549 417L686 417L686 454L823 454L823 402L960 402L960 431L960 541L960 541L823 541L823 541L686 541L686 541L549 541L549 541L411 541L411 541L274 541L274 541L137 541L137 541L0 541Z" fill="#2c0302"></path><path d="M0 470L137 470L137 467L274 467L274 439L411 439L411 466L549 466L549 445L686 445L686 449L823 449L823 465L960 465L960 483L960 541L960 541L823 541L823 541L686 541L686 541L549 541L549 541L411 541L411 541L274 541L274 541L137 541L137 541L0 541Z" fill="#290201"></path><path d="M0 507L137 507L137 495L274 495L274 502L411 502L411 497L549 497L549 482L686 482L686 499L823 499L823 487L960 487L960 514L960 541L960 541L823 541L823 541L686 541L686 541L549 541L549 541L411 541L411 541L274 541L274 541L137 541L137 541L0 541Z" fill="#250000"></path></svg>