<svg id="visual" viewBox="0 0 900 600" width="900" height="600" xmlns="http://www.w3.org/2000/svg" xmlns:xlink="http://www.w3.org/1999/xlink" version="1.1"><g stroke-width="1" stroke-linejoin="bevel"><path d="M453 301L488 340.9L491 294Z" fill="#791e22" stroke="#791e22"></path><path d="M453 301L449 346.9L488 340.9Z" fill="#330e10" stroke="#330e10"></path><path d="M491 294L450 257.1L453 301Z" fill="#1c0000" stroke="#1c0000"></path><path d="M453 301L401 335.9L449 346.9Z" fill="#5c171c" stroke="#5c171c"></path><path d="M449 346.9L490 380.7L488 340.9Z" fill="#882125" stroke="#882125"></path><path d="M488 340.9L542 305L491 294Z" fill="#882125" stroke="#882125"></path><path d="M546 344.9L542 305L488 340.9Z" fill="#6a1a1f" stroke="#6a1a1f"></path><path d="M491 294L501 252.1L450 257.1Z" fill="#972527" stroke="#972527"></path><path d="M540 261.1L501 252.1L491 294Z" fill="#972527" stroke="#972527"></path><path d="M449 346.9L450 381.7L490 380.7Z" fill="#5c171c" stroke="#5c171c"></path><path d="M535 379.7L546 344.9L488 340.9Z" fill="#882125" stroke="#882125"></path><path d="M401 293L401 335.9L453 301Z" fill="#4e1418" stroke="#4e1418"></path><path d="M449 346.9L410 385.7L450 381.7Z" fill="#a62929" stroke="#a62929"></path><path d="M450 257.1L401 293L453 301Z" fill="#401115" stroke="#401115"></path><path d="M578 300L540 261.1L542 305Z" fill="#330e10" stroke="#330e10"></path><path d="M542 305L540 261.1L491 294Z" fill="#6a1a1f" stroke="#6a1a1f"></path><path d="M501 421.6L535 379.7L490 380.7Z" fill="#270908" stroke="#270908"></path><path d="M490 380.7L535 379.7L488 340.9Z" fill="#791e22" stroke="#791e22"></path><path d="M401 335.9L410 385.7L449 346.9Z" fill="#791e22" stroke="#791e22"></path><path d="M449 423.6L501 421.6L490 380.7Z" fill="#330e10" stroke="#330e10"></path><path d="M411 218.3L400 253.1L450 257.1Z" fill="#6a1a1f" stroke="#6a1a1f"></path><path d="M450 257.1L400 253.1L401 293Z" fill="#4e1418" stroke="#4e1418"></path><path d="M401 293L363 304L401 335.9Z" fill="#972527" stroke="#972527"></path><path d="M501 212.3L451 217.3L501 252.1Z" fill="#270908" stroke="#270908"></path><path d="M501 252.1L451 217.3L450 257.1Z" fill="#5c171c" stroke="#5c171c"></path><path d="M579 348.9L578 300L546 344.9Z" fill="#401115" stroke="#401115"></path><path d="M546 344.9L578 300L542 305Z" fill="#a62929" stroke="#a62929"></path><path d="M541 217.3L501 252.1L540 261.1Z" fill="#972527" stroke="#972527"></path><path d="M541 217.3L501 212.3L501 252.1Z" fill="#330e10" stroke="#330e10"></path><path d="M449 423.6L490 380.7L450 381.7Z" fill="#1c0000" stroke="#1c0000"></path><path d="M578 382.7L546 344.9L535 379.7Z" fill="#4e1418" stroke="#4e1418"></path><path d="M578 382.7L579 348.9L546 344.9Z" fill="#4e1418" stroke="#4e1418"></path><path d="M410 385.7L449 423.6L450 381.7Z" fill="#330e10" stroke="#330e10"></path><path d="M366 262.1L363 304L401 293Z" fill="#5c171c" stroke="#5c171c"></path><path d="M401 335.9L359 347.9L410 385.7Z" fill="#972527" stroke="#972527"></path><path d="M451 217.3L411 218.3L450 257.1Z" fill="#270908" stroke="#270908"></path><path d="M400 253.1L366 262.1L401 293Z" fill="#6a1a1f" stroke="#6a1a1f"></path><path d="M444 167.4L411 218.3L451 217.3Z" fill="#5c171c" stroke="#5c171c"></path><path d="M579 219.3L541 217.3L540 261.1Z" fill="#330e10" stroke="#330e10"></path><path d="M363 304L359 347.9L401 335.9Z" fill="#882125" stroke="#882125"></path><path d="M410 385.7L404 433.6L449 423.6Z" fill="#5c171c" stroke="#5c171c"></path><path d="M545 429.6L578 382.7L535 379.7Z" fill="#972527" stroke="#972527"></path><path d="M356 215.3L366 262.1L400 253.1Z" fill="#6a1a1f" stroke="#6a1a1f"></path><path d="M363 304L320 295L359 347.9Z" fill="#972527" stroke="#972527"></path><path d="M624 301L591 263.1L578 300Z" fill="#401115" stroke="#401115"></path><path d="M578 300L591 263.1L540 261.1Z" fill="#882125" stroke="#882125"></path><path d="M624 301L578 300L624 335.9Z" fill="#882125" stroke="#882125"></path><path d="M534 471.4L545 429.6L501 421.6Z" fill="#401115" stroke="#401115"></path><path d="M501 421.6L545 429.6L535 379.7Z" fill="#6a1a1f" stroke="#6a1a1f"></path><path d="M359 347.9L357 381.7L410 385.7Z" fill="#5c171c" stroke="#5c171c"></path><path d="M366 432.6L404 433.6L410 385.7Z" fill="#6a1a1f" stroke="#6a1a1f"></path><path d="M449 423.6L497 469.4L501 421.6Z" fill="#791e22" stroke="#791e22"></path><path d="M591 263.1L579 219.3L540 261.1Z" fill="#330e10" stroke="#330e10"></path><path d="M490 164.4L451 217.3L501 212.3Z" fill="#5c171c" stroke="#5c171c"></path><path d="M624 335.9L578 300L579 348.9Z" fill="#a62929" stroke="#a62929"></path><path d="M591 263.1L633 209.3L579 219.3Z" fill="#972527" stroke="#972527"></path><path d="M545 429.6L580 423.6L578 382.7Z" fill="#330e10" stroke="#330e10"></path><path d="M623 384.7L624 335.9L579 348.9Z" fill="#972527" stroke="#972527"></path><path d="M623 384.7L579 348.9L578 382.7Z" fill="#401115" stroke="#401115"></path><path d="M490 164.4L501 212.3L539 177.4Z" fill="#882125" stroke="#882125"></path><path d="M490 164.4L444 167.4L451 217.3Z" fill="#1c0000" stroke="#1c0000"></path><path d="M411 218.3L356 215.3L400 253.1Z" fill="#6a1a1f" stroke="#6a1a1f"></path><path d="M539 177.4L501 212.3L541 217.3Z" fill="#6a1a1f" stroke="#6a1a1f"></path><path d="M579 219.3L539 177.4L541 217.3Z" fill="#270908" stroke="#270908"></path><path d="M446 476.4L497 469.4L449 423.6Z" fill="#972527" stroke="#972527"></path><path d="M545 429.6L582 464.4L580 423.6Z" fill="#6a1a1f" stroke="#6a1a1f"></path><path d="M406 172.4L356 215.3L411 218.3Z" fill="#5c171c" stroke="#5c171c"></path><path d="M366 262.1L320 295L363 304Z" fill="#5c171c" stroke="#5c171c"></path><path d="M359 347.9L319 383.7L357 381.7Z" fill="#6a1a1f" stroke="#6a1a1f"></path><path d="M317 253.1L320 295L366 262.1Z" fill="#1c0000" stroke="#1c0000"></path><path d="M357 381.7L366 432.6L410 385.7Z" fill="#791e22" stroke="#791e22"></path><path d="M404 433.6L446 476.4L449 423.6Z" fill="#882125" stroke="#882125"></path><path d="M315 424.6L366 432.6L357 381.7Z" fill="#5c171c" stroke="#5c171c"></path><path d="M444 167.4L406 172.4L411 218.3Z" fill="#5c171c" stroke="#5c171c"></path><path d="M580 423.6L623 384.7L578 382.7Z" fill="#1c0000" stroke="#1c0000"></path><path d="M399 475.4L446 476.4L404 433.6Z" fill="#882125" stroke="#882125"></path><path d="M498 515.3L534 471.4L497 469.4Z" fill="#270908" stroke="#270908"></path><path d="M497 469.4L534 471.4L501 421.6Z" fill="#6a1a1f" stroke="#6a1a1f"></path><path d="M580 423.6L629 429.6L623 384.7Z" fill="#4e1418" stroke="#4e1418"></path><path d="M669 298L634 263.1L624 301Z" fill="#882125" stroke="#882125"></path><path d="M624 301L634 263.1L591 263.1Z" fill="#882125" stroke="#882125"></path><path d="M579 219.3L583 164.4L539 177.4Z" fill="#791e22" stroke="#791e22"></path><path d="M669 298L624 301L624 335.9Z" fill="#791e22" stroke="#791e22"></path><path d="M320 295L310 348.9L359 347.9Z" fill="#1c0000" stroke="#1c0000"></path><path d="M310 348.9L319 383.7L359 347.9Z" fill="#a62929" stroke="#a62929"></path><path d="M356 215.3L317 253.1L366 262.1Z" fill="#401115" stroke="#401115"></path><path d="M320 295L273 340.9L310 348.9Z" fill="#791e22" stroke="#791e22"></path><path d="M366 432.6L399 475.4L404 433.6Z" fill="#a62929" stroke="#a62929"></path><path d="M353 477.4L399 475.4L366 432.6Z" fill="#6a1a1f" stroke="#6a1a1f"></path><path d="M534 471.4L582 464.4L545 429.6Z" fill="#5c171c" stroke="#5c171c"></path><path d="M627 171.4L583 164.4L579 219.3Z" fill="#791e22" stroke="#791e22"></path><path d="M535 131.6L492 126.6L490 164.4Z" fill="#330e10" stroke="#330e10"></path><path d="M634 263.1L633 209.3L591 263.1Z" fill="#401115" stroke="#401115"></path><path d="M582 464.4L629 429.6L580 423.6Z" fill="#972527" stroke="#972527"></path><path d="M681 344.9L669 298L624 335.9Z" fill="#791e22" stroke="#791e22"></path><path d="M535 131.6L490 164.4L539 177.4Z" fill="#a62929" stroke="#a62929"></path><path d="M490 164.4L445 122.6L444 167.4Z" fill="#1c0000" stroke="#1c0000"></path><path d="M444 167.4L402 126.6L406 172.4Z" fill="#791e22" stroke="#791e22"></path><path d="M356 215.3L310 218.3L317 253.1Z" fill="#1c0000" stroke="#1c0000"></path><path d="M267 299L273 340.9L320 295Z" fill="#401115" stroke="#401115"></path><path d="M316 167.4L310 218.3L356 215.3Z" fill="#5c171c" stroke="#5c171c"></path><path d="M353 166.4L356 215.3L406 172.4Z" fill="#4e1418" stroke="#4e1418"></path><path d="M268 386.7L315 424.6L319 383.7Z" fill="#972527" stroke="#972527"></path><path d="M319 383.7L315 424.6L357 381.7Z" fill="#972527" stroke="#972527"></path><path d="M362 126.6L353 166.4L406 172.4Z" fill="#a62929" stroke="#a62929"></path><path d="M583 164.4L535 131.6L539 177.4Z" fill="#4e1418" stroke="#4e1418"></path><path d="M681 344.9L624 335.9L623 384.7Z" fill="#791e22" stroke="#791e22"></path><path d="M634 263.1L679 252.1L633 209.3Z" fill="#791e22" stroke="#791e22"></path><path d="M492 126.6L445 122.6L490 164.4Z" fill="#4e1418" stroke="#4e1418"></path><path d="M456 517.3L497 469.4L446 476.4Z" fill="#972527" stroke="#972527"></path><path d="M456 517.3L498 515.3L497 469.4Z" fill="#882125" stroke="#882125"></path><path d="M534 471.4L579 514.3L582 464.4Z" fill="#a62929" stroke="#a62929"></path><path d="M410 518.3L456 517.3L446 476.4Z" fill="#a62929" stroke="#a62929"></path><path d="M410 518.3L446 476.4L399 475.4Z" fill="#330e10" stroke="#330e10"></path><path d="M315 466.4L353 477.4L366 432.6Z" fill="#4e1418" stroke="#4e1418"></path><path d="M445 122.6L402 126.6L444 167.4Z" fill="#972527" stroke="#972527"></path><path d="M267 299L320 295L267 254.1Z" fill="#401115" stroke="#401115"></path><path d="M310 348.9L268 386.7L319 383.7Z" fill="#401115" stroke="#401115"></path><path d="M498 515.3L537 513.3L534 471.4Z" fill="#972527" stroke="#972527"></path><path d="M582 464.4L632 469.4L629 429.6Z" fill="#330e10" stroke="#330e10"></path><path d="M678 381.7L681 344.9L623 384.7Z" fill="#5c171c" stroke="#5c171c"></path><path d="M267 254.1L320 295L317 253.1Z" fill="#401115" stroke="#401115"></path><path d="M633 209.3L627 171.4L579 219.3Z" fill="#5c171c" stroke="#5c171c"></path><path d="M583 164.4L583 125.6L535 131.6Z" fill="#401115" stroke="#401115"></path><path d="M676 172.4L627 171.4L633 209.3Z" fill="#1c0000" stroke="#1c0000"></path><path d="M366 508.3L410 518.3L399 475.4Z" fill="#791e22" stroke="#791e22"></path><path d="M680 422.6L678 381.7L623 384.7Z" fill="#791e22" stroke="#791e22"></path><path d="M719 304L679 252.1L669 298Z" fill="#6a1a1f" stroke="#6a1a1f"></path><path d="M669 298L679 252.1L634 263.1Z" fill="#4e1418" stroke="#4e1418"></path><path d="M268 219.3L267 254.1L310 218.3Z" fill="#5c171c" stroke="#5c171c"></path><path d="M310 218.3L267 254.1L317 253.1Z" fill="#330e10" stroke="#330e10"></path><path d="M310 126.6L316 167.4L353 166.4Z" fill="#4e1418" stroke="#4e1418"></path><path d="M353 166.4L316 167.4L356 215.3Z" fill="#791e22" stroke="#791e22"></path><path d="M630 511.3L632 469.4L582 464.4Z" fill="#5c171c" stroke="#5c171c"></path><path d="M629 429.6L680 422.6L623 384.7Z" fill="#4e1418" stroke="#4e1418"></path><path d="M273 340.9L268 386.7L310 348.9Z" fill="#401115" stroke="#401115"></path><path d="M315 424.6L315 466.4L366 432.6Z" fill="#330e10" stroke="#330e10"></path><path d="M223 348.9L268 386.7L273 340.9Z" fill="#4e1418" stroke="#4e1418"></path><path d="M631 128.6L583 125.6L583 164.4Z" fill="#270908" stroke="#270908"></path><path d="M535 131.6L489 86.7L492 126.6Z" fill="#972527" stroke="#972527"></path><path d="M492 126.6L489 86.7L445 122.6Z" fill="#6a1a1f" stroke="#6a1a1f"></path><path d="M275 430.6L315 466.4L315 424.6Z" fill="#882125" stroke="#882125"></path><path d="M353 477.4L366 508.3L399 475.4Z" fill="#791e22" stroke="#791e22"></path><path d="M313 519.3L366 508.3L353 477.4Z" fill="#6a1a1f" stroke="#6a1a1f"></path><path d="M402 126.6L362 126.6L406 172.4Z" fill="#5c171c" stroke="#5c171c"></path><path d="M353 91.7L362 126.6L402 126.6Z" fill="#6a1a1f" stroke="#6a1a1f"></path><path d="M537 513.3L579 514.3L534 471.4Z" fill="#a62929" stroke="#a62929"></path><path d="M545 558.1L579 514.3L537 513.3Z" fill="#330e10" stroke="#330e10"></path><path d="M545 558.1L537 513.3L498 515.3Z" fill="#791e22" stroke="#791e22"></path><path d="M726 213.3L680 213.3L679 252.1Z" fill="#270908" stroke="#270908"></path><path d="M679 252.1L680 213.3L633 209.3Z" fill="#a62929" stroke="#a62929"></path><path d="M627 171.4L631 128.6L583 164.4Z" fill="#270908" stroke="#270908"></path><path d="M273 176.4L268 219.3L310 218.3Z" fill="#401115" stroke="#401115"></path><path d="M538 79.7L489 86.7L535 131.6Z" fill="#6a1a1f" stroke="#6a1a1f"></path><path d="M445 122.6L411 84.7L402 126.6Z" fill="#4e1418" stroke="#4e1418"></path><path d="M668 466.4L680 422.6L629 429.6Z" fill="#330e10" stroke="#330e10"></path><path d="M718 347.9L719 304L681 344.9Z" fill="#330e10" stroke="#330e10"></path><path d="M268 386.7L275 430.6L315 424.6Z" fill="#a62929" stroke="#a62929"></path><path d="M489 86.7L444 80.7L445 122.6Z" fill="#5c171c" stroke="#5c171c"></path><path d="M444 80.7L411 84.7L445 122.6Z" fill="#4e1418" stroke="#4e1418"></path><path d="M718 347.9L681 344.9L718 378.7Z" fill="#6a1a1f" stroke="#6a1a1f"></path><path d="M681 344.9L719 304L669 298Z" fill="#972527" stroke="#972527"></path><path d="M668 126.6L631 128.6L627 171.4Z" fill="#882125" stroke="#882125"></path><path d="M582 86.7L538 79.7L535 131.6Z" fill="#4e1418" stroke="#4e1418"></path><path d="M632 469.4L668 466.4L629 429.6Z" fill="#6a1a1f" stroke="#6a1a1f"></path><path d="M718 378.7L681 344.9L678 381.7Z" fill="#401115" stroke="#401115"></path><path d="M630 511.3L668 466.4L632 469.4Z" fill="#a62929" stroke="#a62929"></path><path d="M718 378.7L678 381.7L680 422.6Z" fill="#882125" stroke="#882125"></path><path d="M582 86.7L535 131.6L583 125.6Z" fill="#972527" stroke="#972527"></path><path d="M489 86.7L448 46.9L444 80.7Z" fill="#6a1a1f" stroke="#6a1a1f"></path><path d="M444 561.1L488 561.1L456 517.3Z" fill="#972527" stroke="#972527"></path><path d="M456 517.3L488 561.1L498 515.3Z" fill="#882125" stroke="#882125"></path><path d="M444 561.1L456 517.3L410 518.3Z" fill="#a62929" stroke="#a62929"></path><path d="M316 167.4L273 176.4L310 218.3Z" fill="#4e1418" stroke="#4e1418"></path><path d="M310 126.6L273 176.4L316 167.4Z" fill="#4e1418" stroke="#4e1418"></path><path d="M310 126.6L353 166.4L362 126.6Z" fill="#a62929" stroke="#a62929"></path><path d="M407 555.1L444 561.1L410 518.3Z" fill="#1c0000" stroke="#1c0000"></path><path d="M726 213.3L676 172.4L680 213.3Z" fill="#791e22" stroke="#791e22"></path><path d="M680 213.3L676 172.4L633 209.3Z" fill="#a62929" stroke="#a62929"></path><path d="M366 508.3L407 555.1L410 518.3Z" fill="#a62929" stroke="#a62929"></path><path d="M361 563.1L407 555.1L366 508.3Z" fill="#6a1a1f" stroke="#6a1a1f"></path><path d="M313 519.3L353 477.4L315 466.4Z" fill="#270908" stroke="#270908"></path><path d="M583 553.1L630 511.3L579 514.3Z" fill="#401115" stroke="#401115"></path><path d="M579 514.3L630 511.3L582 464.4Z" fill="#1c0000" stroke="#1c0000"></path><path d="M722 426.6L718 378.7L680 422.6Z" fill="#4e1418" stroke="#4e1418"></path><path d="M762 298L723 258.1L719 304Z" fill="#4e1418" stroke="#4e1418"></path><path d="M488 561.1L545 558.1L498 515.3Z" fill="#6a1a1f" stroke="#6a1a1f"></path><path d="M353 91.7L310 126.6L362 126.6Z" fill="#330e10" stroke="#330e10"></path><path d="M631 128.6L582 86.7L583 125.6Z" fill="#5c171c" stroke="#5c171c"></path><path d="M762 298L719 304L765 338.9Z" fill="#1c0000" stroke="#1c0000"></path><path d="M719 304L723 258.1L679 252.1Z" fill="#882125" stroke="#882125"></path><path d="M219 305L273 340.9L267 299Z" fill="#5c171c" stroke="#5c171c"></path><path d="M219 305L223 348.9L273 340.9Z" fill="#401115" stroke="#401115"></path><path d="M268 386.7L220 430.6L275 430.6Z" fill="#a62929" stroke="#a62929"></path><path d="M219 305L267 299L219 259.1Z" fill="#401115" stroke="#401115"></path><path d="M267 299L267 254.1L219 259.1Z" fill="#a62929" stroke="#a62929"></path><path d="M411 84.7L353 91.7L402 126.6Z" fill="#a62929" stroke="#a62929"></path><path d="M361 45.9L353 91.7L411 84.7Z" fill="#330e10" stroke="#330e10"></path><path d="M219 259.1L267 254.1L224 220.3Z" fill="#972527" stroke="#972527"></path><path d="M263 470.4L315 466.4L275 430.6Z" fill="#330e10" stroke="#330e10"></path><path d="M263 470.4L313 519.3L315 466.4Z" fill="#a62929" stroke="#a62929"></path><path d="M545 558.1L583 553.1L579 514.3Z" fill="#401115" stroke="#401115"></path><path d="M220 430.6L263 470.4L275 430.6Z" fill="#401115" stroke="#401115"></path><path d="M224 220.3L267 254.1L268 219.3Z" fill="#972527" stroke="#972527"></path><path d="M223 348.9L220 389.7L268 386.7Z" fill="#972527" stroke="#972527"></path><path d="M182 382.7L220 389.7L223 348.9Z" fill="#882125" stroke="#882125"></path><path d="M230 173.4L268 219.3L273 176.4Z" fill="#791e22" stroke="#791e22"></path><path d="M230 173.4L224 220.3L268 219.3Z" fill="#a62929" stroke="#a62929"></path><path d="M723 474.4L680 422.6L668 466.4Z" fill="#4e1418" stroke="#4e1418"></path><path d="M723 474.4L722 426.6L680 422.6Z" fill="#330e10" stroke="#330e10"></path><path d="M765 338.9L719 304L718 347.9Z" fill="#972527" stroke="#972527"></path><path d="M541 35.9L491 46.9L538 79.7Z" fill="#270908" stroke="#270908"></path><path d="M538 79.7L491 46.9L489 86.7Z" fill="#5c171c" stroke="#5c171c"></path><path d="M444 80.7L410 45.9L411 84.7Z" fill="#5c171c" stroke="#5c171c"></path><path d="M676 172.4L668 126.6L627 171.4Z" fill="#791e22" stroke="#791e22"></path><path d="M631 128.6L636 86.7L582 86.7Z" fill="#401115" stroke="#401115"></path><path d="M719 128.6L668 126.6L676 172.4Z" fill="#5c171c" stroke="#5c171c"></path><path d="M758 215.3L726 213.3L723 258.1Z" fill="#791e22" stroke="#791e22"></path><path d="M723 258.1L726 213.3L679 252.1Z" fill="#5c171c" stroke="#5c171c"></path><path d="M491 46.9L448 46.9L489 86.7Z" fill="#791e22" stroke="#791e22"></path><path d="M319 555.1L361 563.1L366 508.3Z" fill="#270908" stroke="#270908"></path><path d="M447 600L488 561.1L444 561.1Z" fill="#4e1418" stroke="#4e1418"></path><path d="M447 600L491 600L488 561.1Z" fill="#1c0000" stroke="#1c0000"></path><path d="M446 0L410 45.9L448 46.9Z" fill="#1c0000" stroke="#1c0000"></path><path d="M448 46.9L410 45.9L444 80.7Z" fill="#5c171c" stroke="#5c171c"></path><path d="M179 433.6L220 430.6L220 389.7Z" fill="#4e1418" stroke="#4e1418"></path><path d="M220 389.7L220 430.6L268 386.7Z" fill="#330e10" stroke="#330e10"></path><path d="M275 550.1L319 555.1L313 519.3Z" fill="#5c171c" stroke="#5c171c"></path><path d="M668 126.6L636 86.7L631 128.6Z" fill="#270908" stroke="#270908"></path><path d="M580 46.9L541 35.9L538 79.7Z" fill="#270908" stroke="#270908"></path><path d="M583 553.1L633 550.1L630 511.3Z" fill="#a62929" stroke="#a62929"></path><path d="M630 511.3L675 519.3L668 466.4Z" fill="#5c171c" stroke="#5c171c"></path><path d="M589 600L633 550.1L583 553.1Z" fill="#6a1a1f" stroke="#6a1a1f"></path><path d="M353 91.7L311 87.7L310 126.6Z" fill="#972527" stroke="#972527"></path><path d="M265 125.6L230 173.4L273 176.4Z" fill="#a62929" stroke="#a62929"></path><path d="M361 45.9L311 87.7L353 91.7Z" fill="#882125" stroke="#882125"></path><path d="M447 600L444 561.1L408 600Z" fill="#5c171c" stroke="#5c171c"></path><path d="M488 561.1L533 600L545 558.1Z" fill="#401115" stroke="#401115"></path><path d="M545 558.1L589 600L583 553.1Z" fill="#972527" stroke="#972527"></path><path d="M265 125.6L273 176.4L310 126.6Z" fill="#401115" stroke="#401115"></path><path d="M178 295L219 305L219 259.1Z" fill="#401115" stroke="#401115"></path><path d="M311 87.7L265 125.6L310 126.6Z" fill="#791e22" stroke="#791e22"></path><path d="M633 550.1L675 519.3L630 511.3Z" fill="#5c171c" stroke="#5c171c"></path><path d="M408 600L444 561.1L407 555.1Z" fill="#1c0000" stroke="#1c0000"></path><path d="M263 515.3L313 519.3L263 470.4Z" fill="#4e1418" stroke="#4e1418"></path><path d="M313 519.3L319 555.1L366 508.3Z" fill="#a62929" stroke="#a62929"></path><path d="M361 563.1L408 600L407 555.1Z" fill="#791e22" stroke="#791e22"></path><path d="M765 338.9L718 347.9L765 378.7Z" fill="#330e10" stroke="#330e10"></path><path d="M580 46.9L538 79.7L582 86.7Z" fill="#972527" stroke="#972527"></path><path d="M491 46.9L493 0L448 46.9Z" fill="#5c171c" stroke="#5c171c"></path><path d="M625 41.9L580 46.9L582 86.7Z" fill="#330e10" stroke="#330e10"></path><path d="M491 600L533 600L488 561.1Z" fill="#5c171c" stroke="#5c171c"></path><path d="M765 378.7L718 347.9L718 378.7Z" fill="#5c171c" stroke="#5c171c"></path><path d="M226 517.3L263 515.3L263 470.4Z" fill="#4e1418" stroke="#4e1418"></path><path d="M363 600L408 600L361 563.1Z" fill="#a62929" stroke="#a62929"></path><path d="M178 295L184 338.9L219 305Z" fill="#972527" stroke="#972527"></path><path d="M219 305L184 338.9L223 348.9Z" fill="#330e10" stroke="#330e10"></path><path d="M186 259.1L219 259.1L224 220.3Z" fill="#330e10" stroke="#330e10"></path><path d="M765 173.4L726 165.4L726 213.3Z" fill="#401115" stroke="#401115"></path><path d="M726 213.3L726 165.4L676 172.4Z" fill="#882125" stroke="#882125"></path><path d="M668 126.6L680 80.7L636 86.7Z" fill="#972527" stroke="#972527"></path><path d="M675 519.3L723 474.4L668 466.4Z" fill="#270908" stroke="#270908"></path><path d="M722 426.6L765 378.7L718 378.7Z" fill="#791e22" stroke="#791e22"></path><path d="M404 0L361 45.9L410 45.9Z" fill="#4e1418" stroke="#4e1418"></path><path d="M410 45.9L361 45.9L411 84.7Z" fill="#5c171c" stroke="#5c171c"></path><path d="M263 86.7L229 125.6L265 125.6Z" fill="#6a1a1f" stroke="#6a1a1f"></path><path d="M186 213.3L186 259.1L224 220.3Z" fill="#330e10" stroke="#330e10"></path><path d="M762 427.6L765 378.7L722 426.6Z" fill="#5c171c" stroke="#5c171c"></path><path d="M186 259.1L178 295L219 259.1Z" fill="#a62929" stroke="#a62929"></path><path d="M179 433.6L220 472.4L220 430.6Z" fill="#330e10" stroke="#330e10"></path><path d="M220 430.6L220 472.4L263 470.4Z" fill="#401115" stroke="#401115"></path><path d="M771 257.1L758 215.3L723 258.1Z" fill="#401115" stroke="#401115"></path><path d="M771 257.1L723 258.1L762 298Z" fill="#270908" stroke="#270908"></path><path d="M137 336.9L182 382.7L184 338.9Z" fill="#401115" stroke="#401115"></path><path d="M184 338.9L182 382.7L223 348.9Z" fill="#791e22" stroke="#791e22"></path><path d="M804 302L762 298L765 338.9Z" fill="#5c171c" stroke="#5c171c"></path><path d="M804 302L771 257.1L762 298Z" fill="#270908" stroke="#270908"></path><path d="M313 600L363 600L361 563.1Z" fill="#4e1418" stroke="#4e1418"></path><path d="M313 600L361 563.1L319 555.1Z" fill="#1c0000" stroke="#1c0000"></path><path d="M533 600L589 600L545 558.1Z" fill="#a62929" stroke="#a62929"></path><path d="M633 550.1L678 551.1L675 519.3Z" fill="#882125" stroke="#882125"></path><path d="M675 519.3L722 519.3L723 474.4Z" fill="#882125" stroke="#882125"></path><path d="M758 474.4L762 427.6L722 426.6Z" fill="#882125" stroke="#882125"></path><path d="M183 166.4L186 213.3L230 173.4Z" fill="#270908" stroke="#270908"></path><path d="M230 173.4L186 213.3L224 220.3Z" fill="#791e22" stroke="#791e22"></path><path d="M133 297L137 336.9L178 295Z" fill="#791e22" stroke="#791e22"></path><path d="M771 129.6L719 128.6L726 165.4Z" fill="#791e22" stroke="#791e22"></path><path d="M726 165.4L719 128.6L676 172.4Z" fill="#4e1418" stroke="#4e1418"></path><path d="M636 86.7L625 41.9L582 86.7Z" fill="#4e1418" stroke="#4e1418"></path><path d="M228 550.1L275 550.1L263 515.3Z" fill="#6a1a1f" stroke="#6a1a1f"></path><path d="M263 515.3L275 550.1L313 519.3Z" fill="#882125" stroke="#882125"></path><path d="M677 600L678 551.1L633 550.1Z" fill="#401115" stroke="#401115"></path><path d="M723 474.4L758 474.4L722 426.6Z" fill="#972527" stroke="#972527"></path><path d="M265 125.6L229 125.6L230 173.4Z" fill="#270908" stroke="#270908"></path><path d="M263 86.7L265 125.6L311 87.7Z" fill="#972527" stroke="#972527"></path><path d="M719 128.6L680 80.7L668 126.6Z" fill="#a62929" stroke="#a62929"></path><path d="M677 42.9L625 41.9L636 86.7Z" fill="#882125" stroke="#882125"></path><path d="M582 0L537 0L541 35.9Z" fill="#972527" stroke="#972527"></path><path d="M274 41.9L263 86.7L311 87.7Z" fill="#6a1a1f" stroke="#6a1a1f"></path><path d="M537 0L493 0L541 35.9Z" fill="#330e10" stroke="#330e10"></path><path d="M541 35.9L493 0L491 46.9Z" fill="#5c171c" stroke="#5c171c"></path><path d="M493 0L446 0L448 46.9Z" fill="#1c0000" stroke="#1c0000"></path><path d="M361 45.9L318 35.9L311 87.7Z" fill="#4e1418" stroke="#4e1418"></path><path d="M182 382.7L179 433.6L220 389.7Z" fill="#330e10" stroke="#330e10"></path><path d="M220 472.4L226 517.3L263 470.4Z" fill="#a62929" stroke="#a62929"></path><path d="M137 387.7L179 433.6L182 382.7Z" fill="#1c0000" stroke="#1c0000"></path><path d="M678 551.1L722 519.3L675 519.3Z" fill="#6a1a1f" stroke="#6a1a1f"></path><path d="M179 520.3L226 517.3L220 472.4Z" fill="#4e1418" stroke="#4e1418"></path><path d="M362 0L318 35.9L361 45.9Z" fill="#4e1418" stroke="#4e1418"></path><path d="M582 0L541 35.9L580 46.9Z" fill="#a62929" stroke="#a62929"></path><path d="M589 600L630 600L633 550.1Z" fill="#6a1a1f" stroke="#6a1a1f"></path><path d="M678 551.1L723 559.1L722 519.3Z" fill="#330e10" stroke="#330e10"></path><path d="M758 215.3L765 173.4L726 213.3Z" fill="#5c171c" stroke="#5c171c"></path><path d="M718 37.9L677 42.9L680 80.7Z" fill="#791e22" stroke="#791e22"></path><path d="M804 217.3L765 173.4L758 215.3Z" fill="#882125" stroke="#882125"></path><path d="M722 519.3L758 474.4L723 474.4Z" fill="#791e22" stroke="#791e22"></path><path d="M446 0L404 0L410 45.9Z" fill="#a62929" stroke="#a62929"></path><path d="M264 600L313 600L275 550.1Z" fill="#5c171c" stroke="#5c171c"></path><path d="M275 550.1L313 600L319 555.1Z" fill="#882125" stroke="#882125"></path><path d="M175 132.6L183 166.4L229 125.6Z" fill="#882125" stroke="#882125"></path><path d="M229 125.6L183 166.4L230 173.4Z" fill="#6a1a1f" stroke="#6a1a1f"></path><path d="M133 297L178 295L128 256.1Z" fill="#4e1418" stroke="#4e1418"></path><path d="M815 338.9L804 302L765 338.9Z" fill="#791e22" stroke="#791e22"></path><path d="M771 257.1L804 217.3L758 215.3Z" fill="#4e1418" stroke="#4e1418"></path><path d="M815 338.9L765 338.9L765 378.7Z" fill="#270908" stroke="#270908"></path><path d="M815 338.9L765 378.7L814 380.7Z" fill="#972527" stroke="#972527"></path><path d="M625 41.9L582 0L580 46.9Z" fill="#972527" stroke="#972527"></path><path d="M624 0L582 0L625 41.9Z" fill="#270908" stroke="#270908"></path><path d="M404 0L362 0L361 45.9Z" fill="#a62929" stroke="#a62929"></path><path d="M140 430.6L177 471.4L179 433.6Z" fill="#a62929" stroke="#a62929"></path><path d="M179 433.6L177 471.4L220 472.4Z" fill="#401115" stroke="#401115"></path><path d="M226 517.3L228 550.1L263 515.3Z" fill="#330e10" stroke="#330e10"></path><path d="M222 38.9L224 89.7L263 86.7Z" fill="#791e22" stroke="#791e22"></path><path d="M263 86.7L224 89.7L229 125.6Z" fill="#1c0000" stroke="#1c0000"></path><path d="M274 41.9L311 87.7L318 35.9Z" fill="#972527" stroke="#972527"></path><path d="M178 295L186 259.1L128 256.1Z" fill="#5c171c" stroke="#5c171c"></path><path d="M178 295L137 336.9L184 338.9Z" fill="#401115" stroke="#401115"></path><path d="M804 302L811 263.1L771 257.1Z" fill="#5c171c" stroke="#5c171c"></path><path d="M725 78.7L680 80.7L719 128.6Z" fill="#270908" stroke="#270908"></path><path d="M680 80.7L677 42.9L636 86.7Z" fill="#270908" stroke="#270908"></path><path d="M814 380.7L765 378.7L810 422.6Z" fill="#330e10" stroke="#330e10"></path><path d="M804 302L861 298L811 263.1Z" fill="#4e1418" stroke="#4e1418"></path><path d="M179 520.3L228 550.1L226 517.3Z" fill="#6a1a1f" stroke="#6a1a1f"></path><path d="M311 0L274 41.9L318 35.9Z" fill="#882125" stroke="#882125"></path><path d="M128 256.1L186 259.1L130 217.3Z" fill="#5c171c" stroke="#5c171c"></path><path d="M811 263.1L804 217.3L771 257.1Z" fill="#6a1a1f" stroke="#6a1a1f"></path><path d="M763 87.7L725 78.7L719 128.6Z" fill="#972527" stroke="#972527"></path><path d="M810 422.6L765 378.7L762 427.6Z" fill="#401115" stroke="#401115"></path><path d="M771 129.6L726 165.4L765 173.4Z" fill="#791e22" stroke="#791e22"></path><path d="M92 383.7L137 387.7L137 336.9Z" fill="#6a1a1f" stroke="#6a1a1f"></path><path d="M137 336.9L137 387.7L182 382.7Z" fill="#330e10" stroke="#330e10"></path><path d="M677 600L723 559.1L678 551.1Z" fill="#1c0000" stroke="#1c0000"></path><path d="M722 519.3L758 520.3L758 474.4Z" fill="#a62929" stroke="#a62929"></path><path d="M807 477.4L810 422.6L762 427.6Z" fill="#1c0000" stroke="#1c0000"></path><path d="M630 600L677 600L633 550.1Z" fill="#4e1418" stroke="#4e1418"></path><path d="M723 559.1L758 520.3L722 519.3Z" fill="#972527" stroke="#972527"></path><path d="M669 0L624 0L625 41.9Z" fill="#882125" stroke="#882125"></path><path d="M669 0L625 41.9L677 42.9Z" fill="#1c0000" stroke="#1c0000"></path><path d="M810 167.4L771 129.6L765 173.4Z" fill="#a62929" stroke="#a62929"></path><path d="M807 477.4L762 427.6L758 474.4Z" fill="#1c0000" stroke="#1c0000"></path><path d="M181 85.7L175 132.6L229 125.6Z" fill="#972527" stroke="#972527"></path><path d="M130 217.3L186 259.1L186 213.3Z" fill="#4e1418" stroke="#4e1418"></path><path d="M181 85.7L229 125.6L224 89.7Z" fill="#5c171c" stroke="#5c171c"></path><path d="M130 217.3L186 213.3L136 169.4Z" fill="#6a1a1f" stroke="#6a1a1f"></path><path d="M95 427.6L140 430.6L137 387.7Z" fill="#270908" stroke="#270908"></path><path d="M228 550.1L264 600L275 550.1Z" fill="#5c171c" stroke="#5c171c"></path><path d="M137 387.7L140 430.6L179 433.6Z" fill="#270908" stroke="#270908"></path><path d="M177 471.4L179 520.3L220 472.4Z" fill="#a62929" stroke="#a62929"></path><path d="M228 550.1L228 600L264 600Z" fill="#4e1418" stroke="#4e1418"></path><path d="M362 0L311 0L318 35.9Z" fill="#330e10" stroke="#330e10"></path><path d="M222 38.9L181 85.7L224 89.7Z" fill="#791e22" stroke="#791e22"></path><path d="M136 169.4L186 213.3L183 166.4Z" fill="#a62929" stroke="#a62929"></path><path d="M139 510.3L179 520.3L177 471.4Z" fill="#882125" stroke="#882125"></path><path d="M853 176.4L810 167.4L804 217.3Z" fill="#1c0000" stroke="#1c0000"></path><path d="M804 217.3L810 167.4L765 173.4Z" fill="#972527" stroke="#972527"></path><path d="M771 129.6L763 87.7L719 128.6Z" fill="#6a1a1f" stroke="#6a1a1f"></path><path d="M859 208.3L804 217.3L811 263.1Z" fill="#4e1418" stroke="#4e1418"></path><path d="M803 85.7L763 87.7L771 129.6Z" fill="#882125" stroke="#882125"></path><path d="M725 78.7L718 37.9L680 80.7Z" fill="#270908" stroke="#270908"></path><path d="M814 507.3L807 477.4L758 520.3Z" fill="#270908" stroke="#270908"></path><path d="M758 520.3L807 477.4L758 474.4Z" fill="#6a1a1f" stroke="#6a1a1f"></path><path d="M859 380.7L859 345.9L814 380.7Z" fill="#5c171c" stroke="#5c171c"></path><path d="M770 42.9L718 37.9L725 78.7Z" fill="#5c171c" stroke="#5c171c"></path><path d="M130 128.6L136 169.4L175 132.6Z" fill="#401115" stroke="#401115"></path><path d="M175 132.6L136 169.4L183 166.4Z" fill="#5c171c" stroke="#5c171c"></path><path d="M718 37.9L669 0L677 42.9Z" fill="#4e1418" stroke="#4e1418"></path><path d="M677 600L717 600L723 559.1Z" fill="#882125" stroke="#882125"></path><path d="M723 559.1L767 561.1L758 520.3Z" fill="#270908" stroke="#270908"></path><path d="M222 38.9L263 86.7L274 41.9Z" fill="#330e10" stroke="#330e10"></path><path d="M266 0L222 38.9L274 41.9Z" fill="#5c171c" stroke="#5c171c"></path><path d="M178 556.1L228 600L228 550.1Z" fill="#6a1a1f" stroke="#6a1a1f"></path><path d="M311 0L266 0L274 41.9Z" fill="#a62929" stroke="#a62929"></path><path d="M140 430.6L130 474.4L177 471.4Z" fill="#4e1418" stroke="#4e1418"></path><path d="M179 520.3L178 556.1L228 550.1Z" fill="#401115" stroke="#401115"></path><path d="M95 427.6L130 474.4L140 430.6Z" fill="#5c171c" stroke="#5c171c"></path><path d="M92 298L137 336.9L133 297Z" fill="#972527" stroke="#972527"></path><path d="M769 600L767 561.1L723 559.1Z" fill="#791e22" stroke="#791e22"></path><path d="M133 560.1L178 556.1L179 520.3Z" fill="#270908" stroke="#270908"></path><path d="M91 253.1L92 298L128 256.1Z" fill="#a62929" stroke="#a62929"></path><path d="M128 256.1L92 298L133 297Z" fill="#4e1418" stroke="#4e1418"></path><path d="M91 253.1L128 256.1L130 217.3Z" fill="#791e22" stroke="#791e22"></path><path d="M814 380.7L859 345.9L815 338.9Z" fill="#1c0000" stroke="#1c0000"></path><path d="M815 338.9L861 298L804 302Z" fill="#5c171c" stroke="#5c171c"></path><path d="M859 380.7L814 380.7L810 422.6Z" fill="#330e10" stroke="#330e10"></path><path d="M859 345.9L861 298L815 338.9Z" fill="#270908" stroke="#270908"></path><path d="M861 298L860 263.1L811 263.1Z" fill="#5c171c" stroke="#5c171c"></path><path d="M130 474.4L139 510.3L177 471.4Z" fill="#270908" stroke="#270908"></path><path d="M812 555.1L814 507.3L758 520.3Z" fill="#4e1418" stroke="#4e1418"></path><path d="M855 433.6L859 380.7L810 422.6Z" fill="#401115" stroke="#401115"></path><path d="M855 433.6L810 422.6L807 477.4Z" fill="#972527" stroke="#972527"></path><path d="M900 336.9L900 301L861 298Z" fill="#4e1418" stroke="#4e1418"></path><path d="M86 347.9L92 383.7L137 336.9Z" fill="#6a1a1f" stroke="#6a1a1f"></path><path d="M95 510.3L133 560.1L139 510.3Z" fill="#972527" stroke="#972527"></path><path d="M89 212.3L91 253.1L130 217.3Z" fill="#270908" stroke="#270908"></path><path d="M92 298L86 347.9L137 336.9Z" fill="#330e10" stroke="#330e10"></path><path d="M810 167.4L816 126.6L771 129.6Z" fill="#5c171c" stroke="#5c171c"></path><path d="M763 87.7L770 42.9L725 78.7Z" fill="#1c0000" stroke="#1c0000"></path><path d="M848 133.6L816 126.6L810 167.4Z" fill="#791e22" stroke="#791e22"></path><path d="M41 346.9L86 347.9L38 304Z" fill="#972527" stroke="#972527"></path><path d="M141 81.7L130 128.6L175 132.6Z" fill="#1c0000" stroke="#1c0000"></path><path d="M88 174.4L89 212.3L130 217.3Z" fill="#791e22" stroke="#791e22"></path><path d="M141 81.7L175 132.6L181 85.7Z" fill="#6a1a1f" stroke="#6a1a1f"></path><path d="M85 475.4L95 427.6L50 472.4Z" fill="#5c171c" stroke="#5c171c"></path><path d="M92 383.7L95 427.6L137 387.7Z" fill="#401115" stroke="#401115"></path><path d="M859 466.4L855 433.6L807 477.4Z" fill="#330e10" stroke="#330e10"></path><path d="M900 220.3L859 208.3L860 263.1Z" fill="#791e22" stroke="#791e22"></path><path d="M860 263.1L859 208.3L811 263.1Z" fill="#791e22" stroke="#791e22"></path><path d="M88 174.4L130 217.3L136 169.4Z" fill="#791e22" stroke="#791e22"></path><path d="M91 253.1L50 255.1L92 298Z" fill="#5c171c" stroke="#5c171c"></path><path d="M858 91.7L803 85.7L816 126.6Z" fill="#330e10" stroke="#330e10"></path><path d="M816 126.6L803 85.7L771 129.6Z" fill="#791e22" stroke="#791e22"></path><path d="M718 37.9L724 0L669 0Z" fill="#882125" stroke="#882125"></path><path d="M266 0L228 0L222 38.9Z" fill="#972527" stroke="#972527"></path><path d="M222 38.9L183 37.9L181 85.7Z" fill="#4e1418" stroke="#4e1418"></path><path d="M803 85.7L770 42.9L763 87.7Z" fill="#4e1418" stroke="#4e1418"></path><path d="M770 42.9L724 0L718 37.9Z" fill="#972527" stroke="#972527"></path><path d="M859 208.3L853 176.4L804 217.3Z" fill="#330e10" stroke="#330e10"></path><path d="M228 0L183 37.9L222 38.9Z" fill="#6a1a1f" stroke="#6a1a1f"></path><path d="M717 600L769 600L723 559.1Z" fill="#a62929" stroke="#a62929"></path><path d="M767 561.1L812 555.1L758 520.3Z" fill="#330e10" stroke="#330e10"></path><path d="M814 507.3L859 466.4L807 477.4Z" fill="#a62929" stroke="#a62929"></path><path d="M183 37.9L141 81.7L181 85.7Z" fill="#330e10" stroke="#330e10"></path><path d="M130 128.6L88 174.4L136 169.4Z" fill="#330e10" stroke="#330e10"></path><path d="M138 600L177 600L178 556.1Z" fill="#330e10" stroke="#330e10"></path><path d="M178 556.1L177 600L228 600Z" fill="#972527" stroke="#972527"></path><path d="M133 560.1L179 520.3L139 510.3Z" fill="#6a1a1f" stroke="#6a1a1f"></path><path d="M858 513.3L859 466.4L814 507.3Z" fill="#6a1a1f" stroke="#6a1a1f"></path><path d="M900 336.9L859 345.9L900 379.7Z" fill="#5c171c" stroke="#5c171c"></path><path d="M900 336.9L861 298L859 345.9Z" fill="#401115" stroke="#401115"></path><path d="M807 600L812 555.1L767 561.1Z" fill="#a62929" stroke="#a62929"></path><path d="M84 125.6L88 174.4L130 128.6Z" fill="#a62929" stroke="#a62929"></path><path d="M89 212.3L50 255.1L91 253.1Z" fill="#882125" stroke="#882125"></path><path d="M900 134.6L848 133.6L853 176.4Z" fill="#5c171c" stroke="#5c171c"></path><path d="M853 176.4L848 133.6L810 167.4Z" fill="#791e22" stroke="#791e22"></path><path d="M803 85.7L803 45.9L770 42.9Z" fill="#a62929" stroke="#a62929"></path><path d="M95 510.3L139 510.3L130 474.4Z" fill="#401115" stroke="#401115"></path><path d="M40 389.7L95 427.6L92 383.7Z" fill="#6a1a1f" stroke="#6a1a1f"></path><path d="M95 427.6L85 475.4L130 474.4Z" fill="#5c171c" stroke="#5c171c"></path><path d="M861 298L900 263.1L860 263.1Z" fill="#270908" stroke="#270908"></path><path d="M859 208.3L900 175.4L853 176.4Z" fill="#882125" stroke="#882125"></path><path d="M859 345.9L859 380.7L900 379.7Z" fill="#791e22" stroke="#791e22"></path><path d="M851 45.9L803 45.9L803 85.7Z" fill="#401115" stroke="#401115"></path><path d="M770 42.9L770 0L724 0Z" fill="#1c0000" stroke="#1c0000"></path><path d="M900 379.7L859 380.7L900 423.6Z" fill="#1c0000" stroke="#1c0000"></path><path d="M85 475.4L95 510.3L130 474.4Z" fill="#5c171c" stroke="#5c171c"></path><path d="M900 301L900 263.1L861 298Z" fill="#330e10" stroke="#330e10"></path><path d="M900 423.6L859 380.7L855 433.6Z" fill="#401115" stroke="#401115"></path><path d="M48 214.3L50 255.1L89 212.3Z" fill="#401115" stroke="#401115"></path><path d="M86 347.9L40 389.7L92 383.7Z" fill="#1c0000" stroke="#1c0000"></path><path d="M812 555.1L858 513.3L814 507.3Z" fill="#791e22" stroke="#791e22"></path><path d="M900 467.4L900 423.6L855 433.6Z" fill="#401115" stroke="#401115"></path><path d="M854 556.1L858 513.3L812 555.1Z" fill="#1c0000" stroke="#1c0000"></path><path d="M803 45.9L770 0L770 42.9Z" fill="#330e10" stroke="#330e10"></path><path d="M900 263.1L900 220.3L860 263.1Z" fill="#4e1418" stroke="#4e1418"></path><path d="M848 133.6L858 91.7L816 126.6Z" fill="#882125" stroke="#882125"></path><path d="M38 304L86 347.9L92 298Z" fill="#4e1418" stroke="#4e1418"></path><path d="M85 475.4L44 520.3L95 510.3Z" fill="#4e1418" stroke="#4e1418"></path><path d="M85 84.7L84 125.6L130 128.6Z" fill="#4e1418" stroke="#4e1418"></path><path d="M88 174.4L48 214.3L89 212.3Z" fill="#791e22" stroke="#791e22"></path><path d="M85 84.7L130 128.6L141 81.7Z" fill="#a62929" stroke="#a62929"></path><path d="M769 600L807 600L767 561.1Z" fill="#a62929" stroke="#a62929"></path><path d="M228 0L175 0L183 37.9Z" fill="#6a1a1f" stroke="#6a1a1f"></path><path d="M183 37.9L132 37.9L141 81.7Z" fill="#972527" stroke="#972527"></path><path d="M50 255.1L38 304L92 298Z" fill="#5c171c" stroke="#5c171c"></path><path d="M900 467.4L855 433.6L859 466.4Z" fill="#972527" stroke="#972527"></path><path d="M43 166.4L48 214.3L88 174.4Z" fill="#330e10" stroke="#330e10"></path><path d="M0 259.1L0 302L38 304Z" fill="#791e22" stroke="#791e22"></path><path d="M133 560.1L138 600L178 556.1Z" fill="#a62929" stroke="#a62929"></path><path d="M90 600L138 600L133 560.1Z" fill="#6a1a1f" stroke="#6a1a1f"></path><path d="M0 386.7L40 389.7L41 346.9Z" fill="#972527" stroke="#972527"></path><path d="M41 346.9L40 389.7L86 347.9Z" fill="#6a1a1f" stroke="#6a1a1f"></path><path d="M175 0L132 37.9L183 37.9Z" fill="#5c171c" stroke="#5c171c"></path><path d="M900 134.6L858 91.7L848 133.6Z" fill="#a62929" stroke="#a62929"></path><path d="M803 45.9L811 0L770 0Z" fill="#401115" stroke="#401115"></path><path d="M900 220.3L900 175.4L859 208.3Z" fill="#5c171c" stroke="#5c171c"></path><path d="M856 600L854 556.1L812 555.1Z" fill="#4e1418" stroke="#4e1418"></path><path d="M900 509.3L900 467.4L859 466.4Z" fill="#4e1418" stroke="#4e1418"></path><path d="M40 389.7L42 430.6L95 427.6Z" fill="#401115" stroke="#401115"></path><path d="M95 510.3L87 556.1L133 560.1Z" fill="#882125" stroke="#882125"></path><path d="M900 509.3L859 466.4L858 513.3Z" fill="#1c0000" stroke="#1c0000"></path><path d="M42 430.6L50 472.4L95 427.6Z" fill="#6a1a1f" stroke="#6a1a1f"></path><path d="M86 47.9L85 84.7L141 81.7Z" fill="#4e1418" stroke="#4e1418"></path><path d="M84 125.6L43 166.4L88 174.4Z" fill="#330e10" stroke="#330e10"></path><path d="M44 520.3L87 556.1L95 510.3Z" fill="#401115" stroke="#401115"></path><path d="M41 128.6L43 166.4L84 125.6Z" fill="#a62929" stroke="#a62929"></path><path d="M0 259.1L38 304L50 255.1Z" fill="#882125" stroke="#882125"></path><path d="M851 45.9L811 0L803 45.9Z" fill="#882125" stroke="#882125"></path><path d="M900 175.4L900 134.6L853 176.4Z" fill="#270908" stroke="#270908"></path><path d="M858 91.7L851 45.9L803 85.7Z" fill="#270908" stroke="#270908"></path><path d="M900 83.7L851 45.9L858 91.7Z" fill="#270908" stroke="#270908"></path><path d="M175 0L136 0L132 37.9Z" fill="#6a1a1f" stroke="#6a1a1f"></path><path d="M132 37.9L86 47.9L141 81.7Z" fill="#6a1a1f" stroke="#6a1a1f"></path><path d="M900 551.1L900 509.3L858 513.3Z" fill="#401115" stroke="#401115"></path><path d="M83 0L86 47.9L132 37.9Z" fill="#972527" stroke="#972527"></path><path d="M41 83.7L41 128.6L84 125.6Z" fill="#6a1a1f" stroke="#6a1a1f"></path><path d="M41 83.7L84 125.6L85 84.7Z" fill="#791e22" stroke="#791e22"></path><path d="M0 259.1L50 255.1L48 214.3Z" fill="#330e10" stroke="#330e10"></path><path d="M807 600L856 600L812 555.1Z" fill="#791e22" stroke="#791e22"></path><path d="M854 556.1L900 551.1L858 513.3Z" fill="#1c0000" stroke="#1c0000"></path><path d="M0 259.1L48 214.3L0 212.3Z" fill="#5c171c" stroke="#5c171c"></path><path d="M38 304L0 338.9L41 346.9Z" fill="#5c171c" stroke="#5c171c"></path><path d="M40 389.7L0 432.6L42 430.6Z" fill="#5c171c" stroke="#5c171c"></path><path d="M0 475.4L44 520.3L50 472.4Z" fill="#1c0000" stroke="#1c0000"></path><path d="M0 302L0 338.9L38 304Z" fill="#791e22" stroke="#791e22"></path><path d="M0 475.4L50 472.4L42 430.6Z" fill="#972527" stroke="#972527"></path><path d="M50 472.4L44 520.3L85 475.4Z" fill="#4e1418" stroke="#4e1418"></path><path d="M87 556.1L90 600L133 560.1Z" fill="#791e22" stroke="#791e22"></path><path d="M46 600L90 600L87 556.1Z" fill="#a62929" stroke="#a62929"></path><path d="M0 212.3L48 214.3L43 166.4Z" fill="#401115" stroke="#401115"></path><path d="M0 338.9L0 386.7L41 346.9Z" fill="#5c171c" stroke="#5c171c"></path><path d="M900 134.6L900 83.7L858 91.7Z" fill="#4e1418" stroke="#4e1418"></path><path d="M851 45.9L858 0L811 0Z" fill="#270908" stroke="#270908"></path><path d="M900 600L900 551.1L854 556.1Z" fill="#882125" stroke="#882125"></path><path d="M0 170.4L0 212.3L43 166.4Z" fill="#791e22" stroke="#791e22"></path><path d="M0 386.7L0 432.6L40 389.7Z" fill="#330e10" stroke="#330e10"></path><path d="M86 47.9L41 83.7L85 84.7Z" fill="#791e22" stroke="#791e22"></path><path d="M41 128.6L0 170.4L43 166.4Z" fill="#330e10" stroke="#330e10"></path><path d="M51 37.9L41 83.7L86 47.9Z" fill="#270908" stroke="#270908"></path><path d="M900 36.9L858 0L851 45.9Z" fill="#1c0000" stroke="#1c0000"></path><path d="M0 121.6L0 170.4L41 128.6Z" fill="#401115" stroke="#401115"></path><path d="M0 557.1L39 560.1L44 520.3Z" fill="#330e10" stroke="#330e10"></path><path d="M44 520.3L39 560.1L87 556.1Z" fill="#401115" stroke="#401115"></path><path d="M0 432.6L0 475.4L42 430.6Z" fill="#4e1418" stroke="#4e1418"></path><path d="M136 0L83 0L132 37.9Z" fill="#a62929" stroke="#a62929"></path><path d="M83 0L51 37.9L86 47.9Z" fill="#882125" stroke="#882125"></path><path d="M0 91.7L0 121.6L41 128.6Z" fill="#5c171c" stroke="#5c171c"></path><path d="M900 83.7L900 36.9L851 45.9Z" fill="#1c0000" stroke="#1c0000"></path><path d="M856 600L900 600L854 556.1Z" fill="#4e1418" stroke="#4e1418"></path><path d="M0 91.7L41 128.6L41 83.7Z" fill="#791e22" stroke="#791e22"></path><path d="M0 600L46 600L39 560.1Z" fill="#6a1a1f" stroke="#6a1a1f"></path><path d="M39 560.1L46 600L87 556.1Z" fill="#4e1418" stroke="#4e1418"></path><path d="M0 475.4L0 517.3L44 520.3Z" fill="#a62929" stroke="#a62929"></path><path d="M0 47.9L41 83.7L51 37.9Z" fill="#791e22" stroke="#791e22"></path><path d="M0 47.9L0 91.7L41 83.7Z" fill="#6a1a1f" stroke="#6a1a1f"></path><path d="M900 36.9L900 0L858 0Z" fill="#5c171c" stroke="#5c171c"></path><path d="M0 517.3L0 557.1L44 520.3Z" fill="#791e22" stroke="#791e22"></path><path d="M83 0L39 0L51 37.9Z" fill="#330e10" stroke="#330e10"></path><path d="M39 0L0 47.9L51 37.9Z" fill="#4e1418" stroke="#4e1418"></path><path d="M0 557.1L0 600L39 560.1Z" fill="#401115" stroke="#401115"></path><path d="M39 0L0 0L0 47.9Z" fill="#972527" stroke="#972527"></path></g></svg>