<svg id="visual" viewBox="0 0 960 540" width="960" height="540" xmlns="http://www.w3.org/2000/svg" xmlns:xlink="http://www.w3.org/1999/xlink" version="1.1"><g stroke-width="1" stroke-linejoin="bevel"><path d="M475 270L437 263L435 308Z" fill="#3a0f0f" stroke="#3a0f0f"></path><path d="M435 308L480 312L475 270Z" fill="#1e0302" stroke="#1e0302"></path><path d="M473 221L429 229L437 263Z" fill="#3f1010" stroke="#3f1010"></path><path d="M437 263L377 264L435 308Z" fill="#250807" stroke="#250807"></path><path d="M529 226L473 221L475 270Z" fill="#290b09" stroke="#290b09"></path><path d="M475 270L473 221L437 263Z" fill="#290b09" stroke="#290b09"></path><path d="M378 316L436 358L435 308Z" fill="#310d0d" stroke="#310d0d"></path><path d="M435 308L436 358L480 312Z" fill="#3a0f0f" stroke="#3a0f0f"></path><path d="M436 358L479 355L480 312Z" fill="#310d0d" stroke="#310d0d"></path><path d="M528 313L528 275L480 312Z" fill="#310d0d" stroke="#310d0d"></path><path d="M480 312L528 275L475 270Z" fill="#190000" stroke="#190000"></path><path d="M429 229L377 264L437 263Z" fill="#431111" stroke="#431111"></path><path d="M377 264L378 316L435 308Z" fill="#360e0e" stroke="#360e0e"></path><path d="M479 355L528 313L480 312Z" fill="#250807" stroke="#250807"></path><path d="M431 184L381 226L429 229Z" fill="#310d0d" stroke="#310d0d"></path><path d="M429 229L381 226L377 264Z" fill="#2d0c0b" stroke="#2d0c0b"></path><path d="M578 263L529 226L528 275Z" fill="#1e0302" stroke="#1e0302"></path><path d="M528 275L529 226L475 270Z" fill="#431111" stroke="#431111"></path><path d="M339 316L378 357L378 316Z" fill="#3a0f0f" stroke="#3a0f0f"></path><path d="M378 316L378 357L436 358Z" fill="#210605" stroke="#210605"></path><path d="M479 184L431 184L473 221Z" fill="#2d0c0b" stroke="#2d0c0b"></path><path d="M473 221L431 184L429 229Z" fill="#1e0302" stroke="#1e0302"></path><path d="M529 226L479 184L473 221Z" fill="#360e0e" stroke="#360e0e"></path><path d="M330 223L340 272L377 264Z" fill="#3f1010" stroke="#3f1010"></path><path d="M377 264L340 272L378 316Z" fill="#250807" stroke="#250807"></path><path d="M483 405L534 366L479 355Z" fill="#210605" stroke="#210605"></path><path d="M479 355L534 366L528 313Z" fill="#2d0c0b" stroke="#2d0c0b"></path><path d="M528 313L573 316L528 275Z" fill="#3f1010" stroke="#3f1010"></path><path d="M438 401L479 355L436 358Z" fill="#3f1010" stroke="#3f1010"></path><path d="M390 403L438 401L436 358Z" fill="#290b09" stroke="#290b09"></path><path d="M340 272L339 316L378 316Z" fill="#3f1010" stroke="#3f1010"></path><path d="M438 401L483 405L479 355Z" fill="#360e0e" stroke="#360e0e"></path><path d="M534 366L573 316L528 313Z" fill="#431111" stroke="#431111"></path><path d="M570 218L527 184L529 226Z" fill="#310d0d" stroke="#310d0d"></path><path d="M529 226L527 184L479 184Z" fill="#3f1010" stroke="#3f1010"></path><path d="M431 135L378 183L431 184Z" fill="#250807" stroke="#250807"></path><path d="M431 184L378 183L381 226Z" fill="#250807" stroke="#250807"></path><path d="M381 226L330 223L377 264Z" fill="#210605" stroke="#210605"></path><path d="M431 135L431 184L479 184Z" fill="#190000" stroke="#190000"></path><path d="M573 316L578 263L528 275Z" fill="#431111" stroke="#431111"></path><path d="M342 401L390 403L378 357Z" fill="#310d0d" stroke="#310d0d"></path><path d="M378 357L390 403L436 358Z" fill="#190000" stroke="#190000"></path><path d="M438 401L484 455L483 405Z" fill="#360e0e" stroke="#360e0e"></path><path d="M578 263L570 218L529 226Z" fill="#360e0e" stroke="#360e0e"></path><path d="M378 183L330 223L381 226Z" fill="#2d0c0b" stroke="#2d0c0b"></path><path d="M340 272L286 274L339 316Z" fill="#310d0d" stroke="#310d0d"></path><path d="M483 405L534 400L534 366Z" fill="#310d0d" stroke="#310d0d"></path><path d="M534 366L575 357L573 316Z" fill="#360e0e" stroke="#360e0e"></path><path d="M286 320L333 360L339 316Z" fill="#290b09" stroke="#290b09"></path><path d="M339 316L333 360L378 357Z" fill="#290b09" stroke="#290b09"></path><path d="M573 401L575 357L534 366Z" fill="#310d0d" stroke="#310d0d"></path><path d="M573 316L629 275L578 263Z" fill="#2d0c0b" stroke="#2d0c0b"></path><path d="M475 130L431 135L479 184Z" fill="#3a0f0f" stroke="#3a0f0f"></path><path d="M378 183L337 178L330 223Z" fill="#210605" stroke="#210605"></path><path d="M523 134L479 184L527 184Z" fill="#3f1010" stroke="#3f1010"></path><path d="M523 134L475 130L479 184Z" fill="#190000" stroke="#190000"></path><path d="M381 128L337 178L378 183Z" fill="#3f1010" stroke="#3f1010"></path><path d="M333 360L342 401L378 357Z" fill="#250807" stroke="#250807"></path><path d="M626 186L572 175L570 218Z" fill="#210605" stroke="#210605"></path><path d="M570 218L572 175L527 184Z" fill="#3a0f0f" stroke="#3a0f0f"></path><path d="M575 445L573 401L534 400Z" fill="#3f1010" stroke="#3f1010"></path><path d="M534 400L573 401L534 366Z" fill="#250807" stroke="#250807"></path><path d="M281 218L286 274L330 223Z" fill="#2d0c0b" stroke="#2d0c0b"></path><path d="M330 223L286 274L340 272Z" fill="#3f1010" stroke="#3f1010"></path><path d="M333 360L292 398L342 401Z" fill="#290b09" stroke="#290b09"></path><path d="M572 175L523 134L527 184Z" fill="#290b09" stroke="#290b09"></path><path d="M286 274L286 320L339 316Z" fill="#310d0d" stroke="#310d0d"></path><path d="M385 445L429 455L390 403Z" fill="#250807" stroke="#250807"></path><path d="M390 403L429 455L438 401Z" fill="#1e0302" stroke="#1e0302"></path><path d="M483 405L530 453L534 400Z" fill="#360e0e" stroke="#360e0e"></path><path d="M429 455L484 455L438 401Z" fill="#3a0f0f" stroke="#3a0f0f"></path><path d="M342 401L385 445L390 403Z" fill="#431111" stroke="#431111"></path><path d="M431 135L381 128L378 183Z" fill="#210605" stroke="#210605"></path><path d="M429 83L381 128L431 135Z" fill="#250807" stroke="#250807"></path><path d="M630 321L573 316L623 354Z" fill="#1e0302" stroke="#1e0302"></path><path d="M630 321L629 275L573 316Z" fill="#431111" stroke="#431111"></path><path d="M578 263L625 219L570 218Z" fill="#360e0e" stroke="#360e0e"></path><path d="M623 354L573 316L575 357Z" fill="#3f1010" stroke="#3f1010"></path><path d="M620 404L623 354L575 357Z" fill="#3a0f0f" stroke="#3a0f0f"></path><path d="M484 455L530 453L483 405Z" fill="#190000" stroke="#190000"></path><path d="M573 401L620 404L575 357Z" fill="#3f1010" stroke="#3f1010"></path><path d="M243 315L283 359L286 320Z" fill="#1e0302" stroke="#1e0302"></path><path d="M286 320L283 359L333 360Z" fill="#250807" stroke="#250807"></path><path d="M342 401L337 453L385 445Z" fill="#310d0d" stroke="#310d0d"></path><path d="M286 182L330 223L337 178Z" fill="#190000" stroke="#190000"></path><path d="M286 182L281 218L330 223Z" fill="#210605" stroke="#210605"></path><path d="M286 274L243 315L286 320Z" fill="#431111" stroke="#431111"></path><path d="M629 275L625 219L578 263Z" fill="#3a0f0f" stroke="#3a0f0f"></path><path d="M526 83L481 89L523 134Z" fill="#310d0d" stroke="#310d0d"></path><path d="M283 359L292 398L333 360Z" fill="#1e0302" stroke="#1e0302"></path><path d="M381 128L336 129L337 178Z" fill="#190000" stroke="#190000"></path><path d="M287 140L286 182L337 178Z" fill="#3a0f0f" stroke="#3a0f0f"></path><path d="M523 134L481 89L475 130Z" fill="#431111" stroke="#431111"></path><path d="M475 130L429 83L431 135Z" fill="#290b09" stroke="#290b09"></path><path d="M381 128L381 90L336 129Z" fill="#290b09" stroke="#290b09"></path><path d="M580 131L523 134L572 175Z" fill="#3a0f0f" stroke="#3a0f0f"></path><path d="M666 185L626 186L625 219Z" fill="#190000" stroke="#190000"></path><path d="M625 219L626 186L570 218Z" fill="#2d0c0b" stroke="#2d0c0b"></path><path d="M530 453L575 445L534 400Z" fill="#360e0e" stroke="#360e0e"></path><path d="M623 132L580 131L572 175Z" fill="#290b09" stroke="#290b09"></path><path d="M292 398L337 453L342 401Z" fill="#250807" stroke="#250807"></path><path d="M379 489L430 488L429 455Z" fill="#250807" stroke="#250807"></path><path d="M379 489L429 455L385 445Z" fill="#290b09" stroke="#290b09"></path><path d="M429 455L430 488L484 455Z" fill="#290b09" stroke="#290b09"></path><path d="M484 455L531 494L530 453Z" fill="#431111" stroke="#431111"></path><path d="M530 453L531 494L575 445Z" fill="#310d0d" stroke="#310d0d"></path><path d="M481 89L429 83L475 130Z" fill="#190000" stroke="#190000"></path><path d="M575 445L620 404L573 401Z" fill="#431111" stroke="#431111"></path><path d="M677 319L629 275L630 321Z" fill="#360e0e" stroke="#360e0e"></path><path d="M429 83L381 90L381 128Z" fill="#360e0e" stroke="#360e0e"></path><path d="M235 275L286 274L281 218Z" fill="#3a0f0f" stroke="#3a0f0f"></path><path d="M235 275L243 315L286 274Z" fill="#250807" stroke="#250807"></path><path d="M283 359L241 366L292 398Z" fill="#431111" stroke="#431111"></path><path d="M430 488L476 500L484 455Z" fill="#360e0e" stroke="#360e0e"></path><path d="M337 453L379 489L385 445Z" fill="#290b09" stroke="#290b09"></path><path d="M430 488L428 540L476 500Z" fill="#2d0c0b" stroke="#2d0c0b"></path><path d="M570 90L526 83L523 134Z" fill="#3f1010" stroke="#3f1010"></path><path d="M481 89L438 41L429 83Z" fill="#431111" stroke="#431111"></path><path d="M234 220L235 275L281 218Z" fill="#1e0302" stroke="#1e0302"></path><path d="M677 319L671 265L629 275Z" fill="#210605" stroke="#210605"></path><path d="M629 275L671 265L625 219Z" fill="#190000" stroke="#190000"></path><path d="M677 319L630 321L676 354Z" fill="#3f1010" stroke="#3f1010"></path><path d="M336 129L287 140L337 178Z" fill="#190000" stroke="#190000"></path><path d="M234 174L234 220L281 218Z" fill="#290b09" stroke="#290b09"></path><path d="M288 93L287 140L336 129Z" fill="#190000" stroke="#190000"></path><path d="M476 500L531 494L484 455Z" fill="#290b09" stroke="#290b09"></path><path d="M575 445L622 449L620 404Z" fill="#190000" stroke="#190000"></path><path d="M243 315L241 366L283 359Z" fill="#3a0f0f" stroke="#3a0f0f"></path><path d="M292 398L290 452L337 453Z" fill="#2d0c0b" stroke="#2d0c0b"></path><path d="M191 315L241 366L243 315Z" fill="#190000" stroke="#190000"></path><path d="M676 354L630 321L623 354Z" fill="#190000" stroke="#190000"></path><path d="M234 174L281 218L286 182Z" fill="#2d0c0b" stroke="#2d0c0b"></path><path d="M717 272L673 227L671 265Z" fill="#3a0f0f" stroke="#3a0f0f"></path><path d="M671 265L673 227L625 219Z" fill="#3f1010" stroke="#3f1010"></path><path d="M619 95L570 90L580 131Z" fill="#3a0f0f" stroke="#3a0f0f"></path><path d="M339 48L332 92L381 90Z" fill="#290b09" stroke="#290b09"></path><path d="M381 90L332 92L336 129Z" fill="#3a0f0f" stroke="#3a0f0f"></path><path d="M580 131L570 90L523 134Z" fill="#3a0f0f" stroke="#3a0f0f"></path><path d="M623 132L572 175L626 186Z" fill="#250807" stroke="#250807"></path><path d="M666 185L623 132L626 186Z" fill="#2d0c0b" stroke="#2d0c0b"></path><path d="M236 409L290 452L292 398Z" fill="#250807" stroke="#250807"></path><path d="M337 453L342 501L379 489Z" fill="#210605" stroke="#210605"></path><path d="M675 406L676 354L623 354Z" fill="#360e0e" stroke="#360e0e"></path><path d="M675 406L623 354L620 404Z" fill="#3a0f0f" stroke="#3a0f0f"></path><path d="M619 496L622 449L575 445Z" fill="#1e0302" stroke="#1e0302"></path><path d="M673 227L666 185L625 219Z" fill="#360e0e" stroke="#360e0e"></path><path d="M291 501L342 501L337 453Z" fill="#2d0c0b" stroke="#2d0c0b"></path><path d="M386 540L428 540L430 488Z" fill="#2d0c0b" stroke="#2d0c0b"></path><path d="M244 134L234 174L287 140Z" fill="#310d0d" stroke="#310d0d"></path><path d="M287 140L234 174L286 182Z" fill="#1e0302" stroke="#1e0302"></path><path d="M481 40L481 89L526 83Z" fill="#360e0e" stroke="#360e0e"></path><path d="M481 40L438 41L481 89Z" fill="#2d0c0b" stroke="#2d0c0b"></path><path d="M429 83L384 44L381 90Z" fill="#431111" stroke="#431111"></path><path d="M534 540L577 500L531 494Z" fill="#360e0e" stroke="#360e0e"></path><path d="M531 494L577 500L575 445Z" fill="#210605" stroke="#210605"></path><path d="M480 540L531 494L476 500Z" fill="#360e0e" stroke="#360e0e"></path><path d="M530 47L481 40L526 83Z" fill="#2d0c0b" stroke="#2d0c0b"></path><path d="M191 365L236 409L241 366Z" fill="#3a0f0f" stroke="#3a0f0f"></path><path d="M241 366L236 409L292 398Z" fill="#310d0d" stroke="#310d0d"></path><path d="M290 452L291 501L337 453Z" fill="#250807" stroke="#250807"></path><path d="M191 315L243 315L235 275Z" fill="#250807" stroke="#250807"></path><path d="M579 42L530 47L570 90Z" fill="#2d0c0b" stroke="#2d0c0b"></path><path d="M570 90L530 47L526 83Z" fill="#3a0f0f" stroke="#3a0f0f"></path><path d="M438 41L384 44L429 83Z" fill="#2d0c0b" stroke="#2d0c0b"></path><path d="M332 92L288 93L336 129Z" fill="#310d0d" stroke="#310d0d"></path><path d="M665 447L675 406L620 404Z" fill="#190000" stroke="#190000"></path><path d="M722 317L717 272L677 319Z" fill="#431111" stroke="#431111"></path><path d="M665 447L620 404L622 449Z" fill="#431111" stroke="#431111"></path><path d="M673 85L619 95L623 132Z" fill="#290b09" stroke="#290b09"></path><path d="M623 132L619 95L580 131Z" fill="#250807" stroke="#250807"></path><path d="M290 38L288 93L332 92Z" fill="#250807" stroke="#250807"></path><path d="M386 540L430 488L379 489Z" fill="#210605" stroke="#210605"></path><path d="M428 540L480 540L476 500Z" fill="#190000" stroke="#190000"></path><path d="M288 93L244 134L287 140Z" fill="#431111" stroke="#431111"></path><path d="M342 501L386 540L379 489Z" fill="#2d0c0b" stroke="#2d0c0b"></path><path d="M339 540L386 540L342 501Z" fill="#3f1010" stroke="#3f1010"></path><path d="M189 267L235 275L234 220Z" fill="#3a0f0f" stroke="#3a0f0f"></path><path d="M189 267L191 315L235 275Z" fill="#1e0302" stroke="#1e0302"></path><path d="M189 267L234 220L191 221Z" fill="#3a0f0f" stroke="#3a0f0f"></path><path d="M384 44L339 48L381 90Z" fill="#1e0302" stroke="#1e0302"></path><path d="M191 221L234 220L188 178Z" fill="#250807" stroke="#250807"></path><path d="M722 317L677 319L676 354Z" fill="#360e0e" stroke="#360e0e"></path><path d="M677 319L717 272L671 265Z" fill="#210605" stroke="#210605"></path><path d="M673 227L719 178L666 185Z" fill="#1e0302" stroke="#1e0302"></path><path d="M666 185L676 137L623 132Z" fill="#190000" stroke="#190000"></path><path d="M669 494L665 447L622 449Z" fill="#360e0e" stroke="#360e0e"></path><path d="M723 358L722 317L676 354Z" fill="#290b09" stroke="#290b09"></path><path d="M480 540L534 540L531 494Z" fill="#431111" stroke="#431111"></path><path d="M577 500L619 496L575 445Z" fill="#1e0302" stroke="#1e0302"></path><path d="M622 540L619 496L577 500Z" fill="#190000" stroke="#190000"></path><path d="M192 454L243 454L236 409Z" fill="#190000" stroke="#190000"></path><path d="M236 409L243 454L290 452Z" fill="#431111" stroke="#431111"></path><path d="M244 488L291 501L290 452Z" fill="#210605" stroke="#210605"></path><path d="M719 178L676 137L666 185Z" fill="#431111" stroke="#431111"></path><path d="M188 178L234 220L234 174Z" fill="#431111" stroke="#431111"></path><path d="M723 358L676 354L718 400Z" fill="#2d0c0b" stroke="#2d0c0b"></path><path d="M149 360L191 365L191 315Z" fill="#310d0d" stroke="#310d0d"></path><path d="M191 315L191 365L241 366Z" fill="#250807" stroke="#250807"></path><path d="M619 95L579 42L570 90Z" fill="#310d0d" stroke="#310d0d"></path><path d="M479 0L438 41L481 40Z" fill="#2d0c0b" stroke="#2d0c0b"></path><path d="M626 43L579 42L619 95Z" fill="#2d0c0b" stroke="#2d0c0b"></path><path d="M773 274L723 229L717 272Z" fill="#360e0e" stroke="#360e0e"></path><path d="M717 272L723 229L673 227Z" fill="#190000" stroke="#190000"></path><path d="M291 501L339 540L342 501Z" fill="#190000" stroke="#190000"></path><path d="M534 540L570 540L577 500Z" fill="#190000" stroke="#190000"></path><path d="M718 400L676 354L675 406Z" fill="#431111" stroke="#431111"></path><path d="M722 317L773 274L717 272Z" fill="#2d0c0b" stroke="#2d0c0b"></path><path d="M198 136L234 174L244 134Z" fill="#1e0302" stroke="#1e0302"></path><path d="M198 136L188 178L234 174Z" fill="#3f1010" stroke="#3f1010"></path><path d="M138 272L145 313L189 267Z" fill="#2d0c0b" stroke="#2d0c0b"></path><path d="M237 92L244 134L288 93Z" fill="#1e0302" stroke="#1e0302"></path><path d="M438 41L432 0L384 44Z" fill="#190000" stroke="#190000"></path><path d="M384 44L382 0L339 48Z" fill="#310d0d" stroke="#310d0d"></path><path d="M479 0L432 0L438 41Z" fill="#290b09" stroke="#290b09"></path><path d="M479 0L481 40L521 0Z" fill="#210605" stroke="#210605"></path><path d="M191 365L192 407L236 409Z" fill="#290b09" stroke="#290b09"></path><path d="M243 454L244 488L290 452Z" fill="#250807" stroke="#250807"></path><path d="M521 0L481 40L530 47Z" fill="#310d0d" stroke="#310d0d"></path><path d="M723 229L719 178L673 227Z" fill="#360e0e" stroke="#360e0e"></path><path d="M676 137L673 85L623 132Z" fill="#2d0c0b" stroke="#2d0c0b"></path><path d="M716 450L718 400L675 406Z" fill="#250807" stroke="#250807"></path><path d="M716 450L675 406L665 447Z" fill="#3f1010" stroke="#3f1010"></path><path d="M290 38L332 92L339 48Z" fill="#360e0e" stroke="#360e0e"></path><path d="M234 43L237 92L288 93Z" fill="#3f1010" stroke="#3f1010"></path><path d="M192 454L244 488L243 454Z" fill="#1e0302" stroke="#1e0302"></path><path d="M291 501L281 540L339 540Z" fill="#190000" stroke="#190000"></path><path d="M569 0L521 0L530 47Z" fill="#250807" stroke="#250807"></path><path d="M432 0L382 0L384 44Z" fill="#3f1010" stroke="#3f1010"></path><path d="M237 92L198 136L244 134Z" fill="#3f1010" stroke="#3f1010"></path><path d="M332 0L290 38L339 48Z" fill="#2d0c0b" stroke="#2d0c0b"></path><path d="M718 90L673 85L676 137Z" fill="#3f1010" stroke="#3f1010"></path><path d="M579 42L569 0L530 47Z" fill="#3a0f0f" stroke="#3a0f0f"></path><path d="M673 85L626 43L619 95Z" fill="#2d0c0b" stroke="#2d0c0b"></path><path d="M622 540L669 494L619 496Z" fill="#290b09" stroke="#290b09"></path><path d="M619 496L669 494L622 449Z" fill="#250807" stroke="#250807"></path><path d="M719 178L713 136L676 137Z" fill="#250807" stroke="#250807"></path><path d="M570 540L622 540L577 500Z" fill="#210605" stroke="#210605"></path><path d="M244 488L281 540L291 501Z" fill="#290b09" stroke="#290b09"></path><path d="M189 267L145 313L191 315Z" fill="#3a0f0f" stroke="#3a0f0f"></path><path d="M191 365L144 402L192 407Z" fill="#431111" stroke="#431111"></path><path d="M138 272L189 267L137 222Z" fill="#210605" stroke="#210605"></path><path d="M189 267L191 221L137 222Z" fill="#2d0c0b" stroke="#2d0c0b"></path><path d="M620 0L569 0L579 42Z" fill="#3a0f0f" stroke="#3a0f0f"></path><path d="M150 454L192 454L192 407Z" fill="#210605" stroke="#210605"></path><path d="M192 407L192 454L236 409Z" fill="#210605" stroke="#210605"></path><path d="M244 488L234 540L281 540Z" fill="#360e0e" stroke="#360e0e"></path><path d="M716 501L716 450L669 494Z" fill="#290b09" stroke="#290b09"></path><path d="M669 494L716 450L665 447Z" fill="#290b09" stroke="#290b09"></path><path d="M768 400L764 353L723 358Z" fill="#1e0302" stroke="#1e0302"></path><path d="M382 0L332 0L339 48Z" fill="#290b09" stroke="#290b09"></path><path d="M145 313L149 360L191 315Z" fill="#3f1010" stroke="#3f1010"></path><path d="M137 222L191 221L145 184Z" fill="#310d0d" stroke="#310d0d"></path><path d="M97 364L144 402L149 360Z" fill="#190000" stroke="#190000"></path><path d="M768 400L723 358L718 400Z" fill="#290b09" stroke="#290b09"></path><path d="M723 358L764 353L722 317Z" fill="#310d0d" stroke="#310d0d"></path><path d="M723 229L762 175L719 178Z" fill="#3a0f0f" stroke="#3a0f0f"></path><path d="M719 178L764 141L713 136Z" fill="#210605" stroke="#210605"></path><path d="M774 311L773 274L722 317Z" fill="#210605" stroke="#210605"></path><path d="M145 184L191 221L188 178Z" fill="#250807" stroke="#250807"></path><path d="M764 353L774 311L722 317Z" fill="#290b09" stroke="#290b09"></path><path d="M141 140L188 178L198 136Z" fill="#190000" stroke="#190000"></path><path d="M141 140L145 184L188 178Z" fill="#2d0c0b" stroke="#2d0c0b"></path><path d="M190 89L198 136L237 92Z" fill="#190000" stroke="#190000"></path><path d="M237 0L234 43L290 38Z" fill="#2d0c0b" stroke="#2d0c0b"></path><path d="M290 38L234 43L288 93Z" fill="#360e0e" stroke="#360e0e"></path><path d="M820 266L774 227L773 274Z" fill="#3f1010" stroke="#3f1010"></path><path d="M773 274L774 227L723 229Z" fill="#190000" stroke="#190000"></path><path d="M332 0L293 0L290 38Z" fill="#250807" stroke="#250807"></path><path d="M234 43L190 89L237 92Z" fill="#310d0d" stroke="#310d0d"></path><path d="M774 227L762 175L723 229Z" fill="#210605" stroke="#210605"></path><path d="M716 45L672 40L673 85Z" fill="#1e0302" stroke="#1e0302"></path><path d="M149 360L144 402L191 365Z" fill="#210605" stroke="#210605"></path><path d="M97 364L149 360L145 313Z" fill="#360e0e" stroke="#360e0e"></path><path d="M673 85L672 40L626 43Z" fill="#3a0f0f" stroke="#3a0f0f"></path><path d="M626 43L620 0L579 42Z" fill="#2d0c0b" stroke="#2d0c0b"></path><path d="M718 90L676 137L713 136Z" fill="#431111" stroke="#431111"></path><path d="M762 90L718 90L713 136Z" fill="#210605" stroke="#210605"></path><path d="M669 0L620 0L626 43Z" fill="#3f1010" stroke="#3f1010"></path><path d="M195 501L244 488L192 454Z" fill="#3a0f0f" stroke="#3a0f0f"></path><path d="M195 501L234 540L244 488Z" fill="#360e0e" stroke="#360e0e"></path><path d="M150 454L195 501L192 454Z" fill="#431111" stroke="#431111"></path><path d="M716 450L768 400L718 400Z" fill="#3a0f0f" stroke="#3a0f0f"></path><path d="M812 353L814 309L774 311Z" fill="#190000" stroke="#190000"></path><path d="M622 540L678 540L669 494Z" fill="#310d0d" stroke="#310d0d"></path><path d="M716 450L770 455L768 400Z" fill="#250807" stroke="#250807"></path><path d="M678 540L716 501L669 494Z" fill="#190000" stroke="#190000"></path><path d="M812 138L764 141L762 175Z" fill="#2d0c0b" stroke="#2d0c0b"></path><path d="M762 175L764 141L719 178Z" fill="#431111" stroke="#431111"></path><path d="M149 93L198 136L190 89Z" fill="#290b09" stroke="#290b09"></path><path d="M149 93L141 140L198 136Z" fill="#3f1010" stroke="#3f1010"></path><path d="M91 221L94 275L137 222Z" fill="#3a0f0f" stroke="#3a0f0f"></path><path d="M144 402L150 454L192 407Z" fill="#360e0e" stroke="#360e0e"></path><path d="M189 0L189 46L234 43Z" fill="#210605" stroke="#210605"></path><path d="M234 43L189 46L190 89Z" fill="#210605" stroke="#210605"></path><path d="M718 90L716 45L673 85Z" fill="#250807" stroke="#250807"></path><path d="M672 40L669 0L626 43Z" fill="#3a0f0f" stroke="#3a0f0f"></path><path d="M762 90L716 45L718 90Z" fill="#210605" stroke="#210605"></path><path d="M293 0L237 0L290 38Z" fill="#1e0302" stroke="#1e0302"></path><path d="M137 222L94 275L138 272Z" fill="#431111" stroke="#431111"></path><path d="M138 272L92 312L145 313Z" fill="#3a0f0f" stroke="#3a0f0f"></path><path d="M144 402L100 406L150 454Z" fill="#1e0302" stroke="#1e0302"></path><path d="M91 221L137 222L99 183Z" fill="#1e0302" stroke="#1e0302"></path><path d="M717 0L669 0L672 40Z" fill="#190000" stroke="#190000"></path><path d="M189 46L149 93L190 89Z" fill="#250807" stroke="#250807"></path><path d="M99 183L137 222L145 184Z" fill="#290b09" stroke="#290b09"></path><path d="M762 492L770 455L716 450Z" fill="#290b09" stroke="#290b09"></path><path d="M812 353L774 311L764 353Z" fill="#290b09" stroke="#290b09"></path><path d="M762 492L716 450L716 501Z" fill="#360e0e" stroke="#360e0e"></path><path d="M94 275L92 312L138 272Z" fill="#190000" stroke="#190000"></path><path d="M812 353L764 353L768 400Z" fill="#1e0302" stroke="#1e0302"></path><path d="M774 311L814 309L773 274Z" fill="#290b09" stroke="#290b09"></path><path d="M774 227L822 179L762 175Z" fill="#2d0c0b" stroke="#2d0c0b"></path><path d="M195 501L192 540L234 540Z" fill="#190000" stroke="#190000"></path><path d="M145 499L192 540L195 501Z" fill="#3f1010" stroke="#3f1010"></path><path d="M92 312L97 364L145 313Z" fill="#250807" stroke="#250807"></path><path d="M150 454L145 499L195 501Z" fill="#360e0e" stroke="#360e0e"></path><path d="M816 405L812 353L768 400Z" fill="#1e0302" stroke="#1e0302"></path><path d="M764 141L762 90L713 136Z" fill="#310d0d" stroke="#310d0d"></path><path d="M813 96L762 90L764 141Z" fill="#290b09" stroke="#290b09"></path><path d="M99 183L145 184L141 140Z" fill="#360e0e" stroke="#360e0e"></path><path d="M50 274L53 320L92 312Z" fill="#360e0e" stroke="#360e0e"></path><path d="M94 130L99 183L141 140Z" fill="#250807" stroke="#250807"></path><path d="M867 270L820 266L814 309Z" fill="#360e0e" stroke="#360e0e"></path><path d="M814 309L820 266L773 274Z" fill="#360e0e" stroke="#360e0e"></path><path d="M820 266L816 225L774 227Z" fill="#360e0e" stroke="#360e0e"></path><path d="M726 540L762 492L716 501Z" fill="#210605" stroke="#210605"></path><path d="M770 455L816 405L768 400Z" fill="#190000" stroke="#190000"></path><path d="M90 449L100 406L54 401Z" fill="#250807" stroke="#250807"></path><path d="M97 364L100 406L144 402Z" fill="#3f1010" stroke="#3f1010"></path><path d="M678 540L726 540L716 501Z" fill="#431111" stroke="#431111"></path><path d="M90 449L145 499L150 454Z" fill="#190000" stroke="#190000"></path><path d="M819 451L816 405L770 455Z" fill="#431111" stroke="#431111"></path><path d="M812 353L861 320L814 309Z" fill="#3f1010" stroke="#3f1010"></path><path d="M860 224L822 179L816 225Z" fill="#3f1010" stroke="#3f1010"></path><path d="M816 225L822 179L774 227Z" fill="#2d0c0b" stroke="#2d0c0b"></path><path d="M237 0L189 0L234 43Z" fill="#431111" stroke="#431111"></path><path d="M189 46L149 39L149 93Z" fill="#250807" stroke="#250807"></path><path d="M149 93L94 130L141 140Z" fill="#1e0302" stroke="#1e0302"></path><path d="M822 179L812 138L762 175Z" fill="#250807" stroke="#250807"></path><path d="M774 42L717 0L716 45Z" fill="#3f1010" stroke="#3f1010"></path><path d="M774 42L716 45L762 90Z" fill="#360e0e" stroke="#360e0e"></path><path d="M716 45L717 0L672 40Z" fill="#360e0e" stroke="#360e0e"></path><path d="M94 89L94 130L149 93Z" fill="#3f1010" stroke="#3f1010"></path><path d="M50 229L94 275L91 221Z" fill="#431111" stroke="#431111"></path><path d="M189 0L149 39L189 46Z" fill="#210605" stroke="#210605"></path><path d="M54 401L100 406L97 364Z" fill="#210605" stroke="#210605"></path><path d="M100 406L90 449L150 454Z" fill="#3a0f0f" stroke="#3a0f0f"></path><path d="M53 320L97 364L92 312Z" fill="#190000" stroke="#190000"></path><path d="M102 540L144 540L145 499Z" fill="#431111" stroke="#431111"></path><path d="M145 499L144 540L192 540Z" fill="#250807" stroke="#250807"></path><path d="M50 274L94 275L50 229Z" fill="#2d0c0b" stroke="#2d0c0b"></path><path d="M50 274L92 312L94 275Z" fill="#310d0d" stroke="#310d0d"></path><path d="M811 501L819 451L770 455Z" fill="#190000" stroke="#190000"></path><path d="M861 363L861 320L812 353Z" fill="#210605" stroke="#210605"></path><path d="M820 266L860 224L816 225Z" fill="#190000" stroke="#190000"></path><path d="M811 501L770 455L762 492Z" fill="#190000" stroke="#190000"></path><path d="M50 229L91 221L41 176Z" fill="#2d0c0b" stroke="#2d0c0b"></path><path d="M813 96L774 42L762 90Z" fill="#2d0c0b" stroke="#2d0c0b"></path><path d="M726 540L767 540L762 492Z" fill="#1e0302" stroke="#1e0302"></path><path d="M41 176L91 221L99 183Z" fill="#290b09" stroke="#290b09"></path><path d="M865 129L813 96L812 138Z" fill="#190000" stroke="#190000"></path><path d="M812 138L813 96L764 141Z" fill="#290b09" stroke="#290b09"></path><path d="M91 51L94 89L149 93Z" fill="#431111" stroke="#431111"></path><path d="M51 136L41 176L99 183Z" fill="#310d0d" stroke="#310d0d"></path><path d="M91 51L149 93L149 39Z" fill="#360e0e" stroke="#360e0e"></path><path d="M861 363L812 353L816 405Z" fill="#250807" stroke="#250807"></path><path d="M822 179L860 176L812 138Z" fill="#310d0d" stroke="#310d0d"></path><path d="M867 270L860 224L820 266Z" fill="#360e0e" stroke="#360e0e"></path><path d="M43 354L97 364L53 320Z" fill="#2d0c0b" stroke="#2d0c0b"></path><path d="M43 354L54 401L97 364Z" fill="#431111" stroke="#431111"></path><path d="M90 449L90 501L145 499Z" fill="#1e0302" stroke="#1e0302"></path><path d="M0 312L43 354L53 320Z" fill="#290b09" stroke="#290b09"></path><path d="M0 312L53 320L50 274Z" fill="#250807" stroke="#250807"></path><path d="M861 320L867 270L814 309Z" fill="#190000" stroke="#190000"></path><path d="M858 409L861 363L816 405Z" fill="#431111" stroke="#431111"></path><path d="M917 317L910 265L867 270Z" fill="#290b09" stroke="#290b09"></path><path d="M189 0L148 0L149 39Z" fill="#310d0d" stroke="#310d0d"></path><path d="M767 540L811 501L762 492Z" fill="#2d0c0b" stroke="#2d0c0b"></path><path d="M819 451L858 409L816 405Z" fill="#431111" stroke="#431111"></path><path d="M45 492L90 501L90 449Z" fill="#310d0d" stroke="#310d0d"></path><path d="M908 182L860 176L860 224Z" fill="#250807" stroke="#250807"></path><path d="M860 224L860 176L822 179Z" fill="#3a0f0f" stroke="#3a0f0f"></path><path d="M870 446L858 409L819 451Z" fill="#360e0e" stroke="#360e0e"></path><path d="M51 136L99 183L94 130Z" fill="#3f1010" stroke="#3f1010"></path><path d="M50 229L0 269L50 274Z" fill="#3f1010" stroke="#3f1010"></path><path d="M51 136L94 130L94 89Z" fill="#2d0c0b" stroke="#2d0c0b"></path><path d="M815 0L771 0L774 42Z" fill="#3a0f0f" stroke="#3a0f0f"></path><path d="M774 42L771 0L717 0Z" fill="#2d0c0b" stroke="#2d0c0b"></path><path d="M821 51L774 42L813 96Z" fill="#431111" stroke="#431111"></path><path d="M45 84L51 136L94 89Z" fill="#3f1010" stroke="#3f1010"></path><path d="M92 0L91 51L149 39Z" fill="#290b09" stroke="#290b09"></path><path d="M47 540L102 540L90 501Z" fill="#1e0302" stroke="#1e0302"></path><path d="M90 501L102 540L145 499Z" fill="#1e0302" stroke="#1e0302"></path><path d="M866 95L821 51L813 96Z" fill="#1e0302" stroke="#1e0302"></path><path d="M54 401L45 454L90 449Z" fill="#3f1010" stroke="#3f1010"></path><path d="M0 445L45 454L54 401Z" fill="#3f1010" stroke="#3f1010"></path><path d="M915 137L865 129L860 176Z" fill="#290b09" stroke="#290b09"></path><path d="M860 176L865 129L812 138Z" fill="#2d0c0b" stroke="#2d0c0b"></path><path d="M767 540L820 540L811 501Z" fill="#210605" stroke="#210605"></path><path d="M859 489L870 446L819 451Z" fill="#360e0e" stroke="#360e0e"></path><path d="M859 489L819 451L811 501Z" fill="#431111" stroke="#431111"></path><path d="M906 408L906 362L861 363Z" fill="#3a0f0f" stroke="#3a0f0f"></path><path d="M917 317L867 270L861 320Z" fill="#1e0302" stroke="#1e0302"></path><path d="M914 88L866 95L865 129Z" fill="#2d0c0b" stroke="#2d0c0b"></path><path d="M0 224L50 229L41 176Z" fill="#310d0d" stroke="#310d0d"></path><path d="M0 224L0 269L50 229Z" fill="#2d0c0b" stroke="#2d0c0b"></path><path d="M43 354L0 400L54 401Z" fill="#3f1010" stroke="#3f1010"></path><path d="M0 269L0 312L50 274Z" fill="#2d0c0b" stroke="#2d0c0b"></path><path d="M859 540L859 489L811 501Z" fill="#250807" stroke="#250807"></path><path d="M91 51L45 84L94 89Z" fill="#2d0c0b" stroke="#2d0c0b"></path><path d="M0 184L0 224L41 176Z" fill="#1e0302" stroke="#1e0302"></path><path d="M42 46L45 84L91 51Z" fill="#250807" stroke="#250807"></path><path d="M910 265L860 224L867 270Z" fill="#210605" stroke="#210605"></path><path d="M865 129L866 95L813 96Z" fill="#431111" stroke="#431111"></path><path d="M821 51L815 0L774 42Z" fill="#360e0e" stroke="#360e0e"></path><path d="M0 489L45 492L45 454Z" fill="#1e0302" stroke="#1e0302"></path><path d="M45 454L45 492L90 449Z" fill="#431111" stroke="#431111"></path><path d="M0 184L41 176L0 137Z" fill="#1e0302" stroke="#1e0302"></path><path d="M906 362L861 320L861 363Z" fill="#1e0302" stroke="#1e0302"></path><path d="M0 312L0 364L43 354Z" fill="#1e0302" stroke="#1e0302"></path><path d="M906 408L858 409L870 446Z" fill="#310d0d" stroke="#310d0d"></path><path d="M906 408L861 363L858 409Z" fill="#2d0c0b" stroke="#2d0c0b"></path><path d="M148 0L92 0L149 39Z" fill="#360e0e" stroke="#360e0e"></path><path d="M863 47L815 0L821 51Z" fill="#3a0f0f" stroke="#3a0f0f"></path><path d="M0 137L41 176L51 136Z" fill="#1e0302" stroke="#1e0302"></path><path d="M910 265L913 222L860 224Z" fill="#2d0c0b" stroke="#2d0c0b"></path><path d="M960 268L913 222L910 265Z" fill="#290b09" stroke="#290b09"></path><path d="M906 362L917 317L861 320Z" fill="#290b09" stroke="#290b09"></path><path d="M0 364L0 400L43 354Z" fill="#3a0f0f" stroke="#3a0f0f"></path><path d="M913 222L908 182L860 224Z" fill="#190000" stroke="#190000"></path><path d="M913 450L906 408L870 446Z" fill="#310d0d" stroke="#310d0d"></path><path d="M960 308L910 265L917 317Z" fill="#2d0c0b" stroke="#2d0c0b"></path><path d="M866 95L863 47L821 51Z" fill="#190000" stroke="#190000"></path><path d="M914 88L863 47L866 95Z" fill="#210605" stroke="#210605"></path><path d="M51 0L42 46L91 51Z" fill="#431111" stroke="#431111"></path><path d="M45 84L0 137L51 136Z" fill="#310d0d" stroke="#310d0d"></path><path d="M0 85L0 137L45 84Z" fill="#290b09" stroke="#290b09"></path><path d="M0 540L47 540L45 492Z" fill="#210605" stroke="#210605"></path><path d="M45 492L47 540L90 501Z" fill="#250807" stroke="#250807"></path><path d="M820 540L859 540L811 501Z" fill="#3f1010" stroke="#3f1010"></path><path d="M908 495L913 450L870 446Z" fill="#3a0f0f" stroke="#3a0f0f"></path><path d="M0 400L0 445L54 401Z" fill="#1e0302" stroke="#1e0302"></path><path d="M960 183L915 137L908 182Z" fill="#250807" stroke="#250807"></path><path d="M908 182L915 137L860 176Z" fill="#360e0e" stroke="#360e0e"></path><path d="M960 183L908 182L913 222Z" fill="#3a0f0f" stroke="#3a0f0f"></path><path d="M908 495L870 446L859 489Z" fill="#190000" stroke="#190000"></path><path d="M960 308L917 317L960 355Z" fill="#210605" stroke="#210605"></path><path d="M92 0L51 0L91 51Z" fill="#190000" stroke="#190000"></path><path d="M42 46L0 85L45 84Z" fill="#250807" stroke="#250807"></path><path d="M0 41L0 85L42 46Z" fill="#2d0c0b" stroke="#2d0c0b"></path><path d="M0 445L0 489L45 454Z" fill="#431111" stroke="#431111"></path><path d="M859 540L908 495L859 489Z" fill="#290b09" stroke="#290b09"></path><path d="M907 0L865 0L863 47Z" fill="#431111" stroke="#431111"></path><path d="M863 47L865 0L815 0Z" fill="#210605" stroke="#210605"></path><path d="M915 137L914 88L865 129Z" fill="#1e0302" stroke="#1e0302"></path><path d="M917 317L906 362L960 355Z" fill="#1e0302" stroke="#1e0302"></path><path d="M960 308L960 268L910 265Z" fill="#3f1010" stroke="#3f1010"></path><path d="M915 137L960 92L914 88Z" fill="#360e0e" stroke="#360e0e"></path><path d="M906 362L960 409L960 355Z" fill="#2d0c0b" stroke="#2d0c0b"></path><path d="M906 362L906 408L960 409Z" fill="#310d0d" stroke="#310d0d"></path><path d="M960 268L960 222L913 222Z" fill="#250807" stroke="#250807"></path><path d="M960 409L906 408L913 450Z" fill="#360e0e" stroke="#360e0e"></path><path d="M0 0L0 41L42 46Z" fill="#3a0f0f" stroke="#3a0f0f"></path><path d="M960 222L960 183L913 222Z" fill="#210605" stroke="#210605"></path><path d="M960 47L913 49L914 88Z" fill="#431111" stroke="#431111"></path><path d="M914 88L913 49L863 47Z" fill="#1e0302" stroke="#1e0302"></path><path d="M0 489L0 540L45 492Z" fill="#310d0d" stroke="#310d0d"></path><path d="M960 450L960 409L913 450Z" fill="#360e0e" stroke="#360e0e"></path><path d="M859 540L913 540L908 495Z" fill="#2d0c0b" stroke="#2d0c0b"></path><path d="M960 491L960 450L913 450Z" fill="#250807" stroke="#250807"></path><path d="M960 183L960 135L915 137Z" fill="#250807" stroke="#250807"></path><path d="M960 491L913 450L908 495Z" fill="#3a0f0f" stroke="#3a0f0f"></path><path d="M51 0L0 0L42 46Z" fill="#2d0c0b" stroke="#2d0c0b"></path><path d="M913 49L907 0L863 47Z" fill="#3a0f0f" stroke="#3a0f0f"></path><path d="M960 0L907 0L913 49Z" fill="#3a0f0f" stroke="#3a0f0f"></path><path d="M960 135L960 92L915 137Z" fill="#1e0302" stroke="#1e0302"></path><path d="M913 540L960 491L908 495Z" fill="#1e0302" stroke="#1e0302"></path><path d="M960 92L960 47L914 88Z" fill="#360e0e" stroke="#360e0e"></path><path d="M913 540L960 540L960 491Z" fill="#310d0d" stroke="#310d0d"></path><path d="M960 47L960 0L913 49Z" fill="#290b09" stroke="#290b09"></path></g></svg>